<svg width="16" height="16" viewBox="0 0 16 16" fill="none" xmlns="http://www.w3.org/2000/svg">
<path d="M8.45221 4.07365C8.66768 3.83066 9.02546 3.84616 9.23248 4.05315L10.5137 5.3344L11.085 4.76408C11.2412 4.60797 11.4942 4.60805 11.6505 4.76408C11.8066 4.92028 11.8066 5.1733 11.6505 5.32951L11.0792 5.89983L12.3624 7.18205C12.57 7.38992 12.5822 7.74536 12.3448 7.96037C11.8166 8.43872 11.1922 8.67751 10.5108 8.65373L9.97272 9.19182L11.0264 10.2455C11.2382 10.4573 11.2382 10.8003 11.0264 11.0121L9.42487 12.6147C9.21308 12.8265 8.86907 12.8265 8.65729 12.6147L7.60358 11.561L7.50787 11.6576C6.98117 12.1843 6.12734 12.1843 5.60065 11.6576L4.7569 10.8139C4.23037 10.2872 4.23028 9.43331 4.7569 8.90666L4.8526 8.80998L3.79987 7.75725C3.5885 7.54555 3.58851 7.20236 3.79987 6.99065L5.4024 5.38811L5.48737 5.31877C5.66798 5.19927 5.9044 5.19929 6.08502 5.31877L6.16998 5.38811L7.22272 6.44084L7.76569 5.8969C7.76452 5.24555 7.99166 4.59316 8.45221 4.07365ZM8.16998 10.9955L9.0401 11.8666L10.2784 10.6283L9.40729 9.75725L8.16998 10.9955ZM7.50592 7.28947L5.70221 9.09318L5.32233 9.47209C5.10813 9.68632 5.10822 10.0342 5.32233 10.2485L6.16608 11.0922C6.38035 11.3065 6.72816 11.3065 6.94244 11.0922L9.12506 8.90959L9.57037 8.4633C9.2067 8.32798 8.85256 8.12244 8.57233 7.84221C8.28314 7.55298 8.07263 7.2148 7.93854 6.8549L7.50592 7.28947ZM2.77057 5.60979C2.92678 5.45358 3.18077 5.45358 3.33698 5.60979C3.49291 5.76596 3.49295 6.01907 3.33698 6.17522L2.56549 6.94572L3.33698 7.71721C3.49298 7.87334 3.49288 8.12645 3.33698 8.28264L2.56549 9.05315L3.33698 9.82463C3.49305 9.98072 3.49281 10.2338 3.33698 10.3901C3.18077 10.5463 2.92678 10.5463 2.77057 10.3901L1.71686 9.33635C1.64213 9.26143 1.59973 9.15995 1.59967 9.05412C1.59967 8.94809 1.64192 8.84592 1.71686 8.77092L2.48737 7.99943L1.71686 7.22893C1.64211 7.15404 1.59979 7.0525 1.59967 6.9467C1.59967 6.84072 1.64198 6.73849 1.71686 6.6635L2.77057 5.60979ZM12.6631 5.60979C12.8194 5.45358 13.0733 5.45358 13.2296 5.60979L14.2833 6.6635C14.4392 6.81964 14.4392 7.07276 14.2833 7.22893L13.5118 7.99943L14.2833 8.77092C14.4393 8.92702 14.4391 9.18014 14.2833 9.33635L13.2296 10.3901C13.0733 10.5463 12.8194 10.5463 12.6631 10.3901C12.5073 10.2338 12.5071 9.98071 12.6631 9.82463L13.4337 9.05315L12.6631 8.28264C12.5073 8.12645 12.5072 7.87333 12.6631 7.71721L13.4337 6.94572L12.6631 6.17522C12.5072 6.01907 12.5072 5.76595 12.6631 5.60979ZM4.54791 7.37346L5.41901 8.24455L6.65631 7.00627L5.78619 6.13615L4.54791 7.37346ZM8.87897 4.83049C8.6431 5.19153 8.53875 5.61454 8.56842 6.03166C8.60074 6.48498 8.79033 6.92927 9.13776 7.27678C9.45657 7.59559 9.95487 7.79878 10.3985 7.84709C10.8282 7.89389 11.2245 7.79263 11.588 7.53947L8.87897 4.83049Z" fill="#EEEEEE" />
</svg>
