<svg width="16" height="16" viewBox="0 0 16 16" fill="none" xmlns="http://www.w3.org/2000/svg">
<path d="M7.59995 12.6664V8.39978H3.33334C3.11254 8.39978 2.93313 8.22113 2.93295 8.00037C2.93295 7.77945 3.11243 7.59998 3.33334 7.59998H7.59995V3.33337C7.59995 3.11246 7.77942 2.93298 8.00034 2.93298C8.2211 2.93316 8.39975 3.11257 8.39975 3.33337V7.59998H12.6664C12.8873 7.59998 13.0667 7.77945 13.0667 8.00037C13.0666 8.22113 12.8872 8.39978 12.6664 8.39978H8.39975V12.6664C8.39975 12.8872 8.2211 13.0666 8.00034 13.0668C7.77942 13.0668 7.59995 12.8873 7.59995 12.6664Z" fill="#EEEEEE" />
</svg>
