<svg width="16" height="16" viewBox="0 0 16 16" fill="none" xmlns="http://www.w3.org/2000/svg">
<path d="M2.93294 2C2.93294 1.77909 3.11241 1.59961 3.33333 1.59961C3.55424 1.59961 3.73372 1.77909 3.73372 2V12.2666H14.0003C14.2211 12.2668 14.3997 12.4462 14.3997 12.667C14.3996 12.8876 14.221 13.0662 14.0003 13.0664H3.33333C3.11252 13.0664 2.93311 12.8878 2.93294 12.667V2Z" fill="#EEEEEE" />
<path d="M7.05013 8.38346C7.20634 8.22725 7.46032 8.22725 7.61653 8.38346C7.77274 8.53967 7.77274 8.79366 7.61653 8.94987L3.61653 12.9499C3.46032 13.1061 3.20634 13.1061 3.05013 12.9499C2.89392 12.7937 2.89392 12.5397 3.05013 12.3835L7.05013 8.38346Z" fill="#EEEEEE" />
<path d="M3.1136 1.66602C3.26884 1.56365 3.47991 1.58017 3.61653 1.7168L5.61653 3.7168C5.77274 3.87301 5.77274 4.12699 5.61653 4.2832C5.46032 4.43941 5.20634 4.43941 5.05013 4.2832L3.33333 2.56641L1.61653 4.2832C1.46032 4.43941 1.20634 4.43941 1.05013 4.2832C0.893916 4.12699 0.893916 3.87301 1.05013 3.7168L3.05013 1.7168L3.1136 1.66602Z" fill="#EEEEEE" />
<path d="M11.7168 10.3835C11.873 10.2273 12.127 10.2273 12.2832 10.3835L14.2832 12.3835C14.4394 12.5397 14.4394 12.7937 14.2832 12.9499L12.2832 14.9499C12.127 15.1061 11.873 15.1061 11.7168 14.9499C11.5606 14.7937 11.5606 14.5397 11.7168 14.3835L13.4336 12.6667L11.7168 10.9499C11.5606 10.7937 11.5606 10.5397 11.7168 10.3835Z" fill="#EEEEEE" />
</svg>
