<svg width="16" height="16" viewBox="0 0 16 16" fill="none" xmlns="http://www.w3.org/2000/svg">
<path d="M11.2002 6.2002C11.2002 5.75837 10.8422 5.40043 10.4004 5.40039H3.2002C2.75834 5.40039 2.40039 5.75834 2.40039 6.2002V9.7998C2.40039 10.2417 2.75834 10.6006 3.2002 10.6006H10.4004C10.8422 10.6005 11.2002 10.2416 11.2002 9.7998V6.2002ZM4 8.59961V7.40039C4 7.17962 4.1787 7.00023 4.39941 7C4.62033 7 4.7998 7.17948 4.7998 7.40039V8.59961C4.7998 8.82052 4.62033 9 4.39941 9C4.1787 8.99977 4 8.82038 4 8.59961ZM6.39941 8.59961V7.40039C6.39941 7.17948 6.57889 7 6.7998 7C7.02069 7.00003 7.2002 7.1795 7.2002 7.40039V8.59961C7.2002 8.8205 7.02069 8.99997 6.7998 9C6.57889 9 6.39941 8.82052 6.39941 8.59961ZM8.7998 8.59961V7.40039C8.7998 7.1795 8.97931 7.00003 9.2002 7C9.42111 7 9.60059 7.17948 9.60059 7.40039V8.59961C9.60059 8.82052 9.42111 9 9.2002 9C8.97931 8.99997 8.7998 8.8205 8.7998 8.59961ZM13.5996 8.59961V7.40039C13.5996 7.17948 13.7791 7 14 7C14.2209 7 14.4004 7.17948 14.4004 7.40039V8.59961C14.4004 8.82052 14.2209 9 14 9C13.7791 9 13.5996 8.82052 13.5996 8.59961ZM12 9.7998C12 10.6835 11.284 11.4004 10.4004 11.4004H3.2002C2.31651 11.4004 1.59961 10.6835 1.59961 9.7998V6.2002C1.59961 5.31651 2.31651 4.59961 3.2002 4.59961H10.4004C11.284 4.59965 12 5.31654 12 6.2002V9.7998Z" fill="#EEEEEE" />
</svg>
