<svg width="16" height="16" viewBox="0 0 16 16" fill="none" xmlns="http://www.w3.org/2000/svg">
<path d="M8.00012 1.80029C8.29013 1.80035 8.57472 1.87954 8.82336 2.02881L10.6232 3.10889H10.6241C10.8602 3.25074 11.0556 3.4514 11.1915 3.69092C11.3275 3.93054 11.3989 4.20156 11.3995 4.47705V6.87354L13.6241 8.20947C13.8536 8.34738 14.0435 8.54125 14.1788 8.77197C14.1815 8.77603 14.1851 8.7795 14.1876 8.78369C14.1891 8.78618 14.1901 8.789 14.1915 8.7915L14.2814 8.97607C14.3591 9.16637 14.4001 9.37082 14.4005 9.57764V11.5229C14.3999 11.7985 14.3275 12.0694 14.1915 12.3091C14.0895 12.4888 13.9541 12.6465 13.7931 12.7739L13.6241 12.8911L11.8243 13.9712C11.596 14.1084 11.3368 14.182 11.0714 14.1938C11.0482 14.198 11.0245 14.2026 11.0001 14.2026C10.9761 14.2026 10.9527 14.1989 10.9298 14.1948C10.7364 14.1863 10.5464 14.1458 10.3693 14.0698L10.1759 13.9712L8.00012 12.6665L5.82434 13.9712C5.59536 14.1088 5.33561 14.1833 5.06946 14.1948C5.04686 14.1988 5.02385 14.2026 5.00012 14.2026C4.97549 14.2026 4.95126 14.1981 4.92786 14.1938C4.73513 14.1851 4.54583 14.1456 4.36926 14.0698L4.1759 13.9712L2.3761 12.8911C2.13997 12.7492 1.94466 12.5487 1.80872 12.3091C1.67276 12.0694 1.60034 11.7985 1.59973 11.5229V9.57764C1.60034 9.30209 1.67277 9.03117 1.80872 8.7915C1.94465 8.55187 2.13996 8.35137 2.3761 8.20947L4.59973 6.87354V4.47705C4.60036 4.20156 4.67181 3.93054 4.80774 3.69092C4.94369 3.45131 5.13995 3.25076 5.3761 3.10889L7.1759 2.02881L7.36829 1.93018C7.56706 1.84481 7.78229 1.80029 8.00012 1.80029ZM2.40051 11.521L2.40735 11.6235C2.42072 11.7255 2.45298 11.8246 2.50403 11.9146C2.572 12.0343 2.67014 12.1346 2.78821 12.2056L4.58801 13.2856L4.59973 13.2915V10.9253L2.40051 9.60303V11.521ZM5.39954 10.9263V13.2915C5.40355 13.2892 5.40825 13.288 5.41223 13.2856V13.2847L7.60071 11.9731V9.60596L5.39954 10.9263ZM8.40051 11.9731L10.588 13.2856L10.5997 13.2915V10.9263L8.40051 9.60596V11.9731ZM11.4005 10.9263V13.2915C11.4043 13.2893 11.4085 13.2879 11.4122 13.2856L13.212 12.2056C13.3301 12.1346 13.4282 12.0343 13.4962 11.9146C13.5641 11.7949 13.5993 11.6595 13.5997 11.522V9.60303L11.4005 10.9263ZM2.78821 8.89502C2.78597 8.89636 2.78359 8.89756 2.78137 8.89893L5.00012 10.2329L7.2218 8.8999L5.00012 7.56592L2.78821 8.89502ZM8.77747 8.8999L10.9991 10.2329L13.2179 8.89893L13.212 8.89502L10.9991 7.56592L8.77747 8.8999ZM5.39954 6.87354L7.59973 8.19287V5.82568L5.39954 4.50342V6.87354ZM8.39954 5.82568V8.19287L10.5997 6.87354V4.50342L8.39954 5.82568ZM8.00012 2.60107C7.85496 2.60107 7.71244 2.64058 7.58801 2.71533L5.78723 3.79443C5.78508 3.79573 5.78351 3.798 5.78137 3.79932L8.00012 5.1333L10.2179 3.79932C10.2159 3.79809 10.214 3.79662 10.212 3.79541L8.41223 2.71533C8.2879 2.64063 8.14516 2.60114 8.00012 2.60107Z" fill="#EEEEEE" />
</svg>
