<svg width="16" height="16" viewBox="0 0 16 16" fill="none" xmlns="http://www.w3.org/2000/svg">
<path d="M5.5934 6.79993C5.89499 6.80146 6.19002 6.88579 6.4479 7.04309L6.44985 7.04407L8.38833 8.23743L8.48208 8.29993C8.69622 8.45234 8.8724 8.6532 8.99673 8.88684C9.13687 9.15036 9.20623 9.44653 9.19887 9.74524L9.19985 11.8693C9.20299 12.1699 9.12768 12.467 8.98208 12.7296C8.83711 12.9909 8.62612 13.2084 8.37075 13.3615L6.47133 14.549L6.4645 14.5538L6.46352 14.5529C6.23166 14.6912 5.97094 14.77 5.70278 14.7843C5.66988 14.7931 5.6359 14.7999 5.60024 14.7999C5.56149 14.7999 5.52435 14.7926 5.48891 14.7823C5.22855 14.7624 4.97587 14.6819 4.75161 14.545L4.75063 14.5441L2.81215 13.3507C2.55526 13.1928 2.34489 12.9684 2.20278 12.7013C2.0607 12.4341 1.99102 12.1331 2.00063 11.8302V9.71887C1.99746 9.41814 2.0718 9.12116 2.21743 8.85852C2.36387 8.59442 2.57755 8.37412 2.83657 8.22083L4.72915 7.03918L4.73598 7.0343L4.83462 6.97961C5.06931 6.86028 5.32932 6.79859 5.5934 6.79993ZM12.4 12.7999V3.19934C12.3998 2.53678 11.8625 2.00012 11.1999 2.00012H4.80044C4.13782 2.00012 3.60045 2.53678 3.60024 3.19934V5.46692C3.6 5.68763 3.42062 5.86633 3.19985 5.86633C2.97917 5.86623 2.80067 5.68757 2.80044 5.46692V3.19934C2.80065 2.09495 3.696 1.19934 4.80044 1.19934H11.1999C12.3043 1.19934 13.1996 2.09495 13.1999 3.19934V12.7999C13.1997 13.9044 12.3044 14.7999 11.1999 14.7999H9.44008C9.21917 14.7999 9.03969 14.6205 9.03969 14.3995C9.0398 14.1787 9.21924 14.0001 9.44008 14.0001H11.1999C11.8625 14.0001 12.3999 13.4626 12.4 12.7999ZM5.99965 11.3458V13.8937C6.01666 13.8851 6.03393 13.8771 6.05044 13.8673L7.95571 12.6788C8.09088 12.5989 8.20443 12.4824 8.28286 12.3409C8.36112 12.1997 8.40121 12.0388 8.39907 11.8751V9.88098L5.99965 11.3458ZM2.80044 11.8556C2.79523 12.0197 2.8327 12.1821 2.90883 12.3253C2.98496 12.4685 3.09698 12.5866 3.2311 12.6691L5.16762 13.8615C5.17753 13.8675 5.18975 13.8714 5.19985 13.8771V11.3458L2.80044 9.88098V11.8556ZM5.5895 7.59973C5.43444 7.59895 5.28136 7.64112 5.14614 7.7218L5.14516 7.72083L3.25258 8.90442L3.2438 8.9093C3.16487 8.95604 3.09422 9.01581 3.03286 9.08508L5.59926 10.6525L8.16665 9.08606C8.10885 9.02101 8.04293 8.96432 7.96938 8.91907L6.02993 7.72571C5.89593 7.64436 5.74382 7.60055 5.5895 7.59973Z" fill="#EEEEEE" />
</svg>
