<svg width="16" height="16" viewBox="0 0 16 16" fill="none" xmlns="http://www.w3.org/2000/svg">
<path d="M11.7168 9.7168C11.873 9.56059 12.127 9.56059 12.2832 9.7168C12.4394 9.87301 12.4394 10.127 12.2832 10.2832L8.28317 14.2832C8.12696 14.4394 7.87298 14.4394 7.71677 14.2832L3.71677 10.2832C3.56056 10.127 3.56056 9.87301 3.71677 9.7168C3.87298 9.56059 4.12696 9.56059 4.28317 9.7168L7.99997 13.4336L11.7168 9.7168ZM7.99997 1.59961C8.10606 1.59961 8.20816 1.64178 8.28317 1.7168L12.2832 5.7168C12.4394 5.87301 12.4394 6.12699 12.2832 6.2832C12.127 6.43941 11.873 6.43941 11.7168 6.2832L7.99997 2.56641L4.28317 6.2832C4.12696 6.43941 3.87298 6.43941 3.71677 6.2832C3.56056 6.12699 3.56056 5.87301 3.71677 5.7168L7.71677 1.7168L7.77829 1.66699C7.84347 1.62361 7.92051 1.59961 7.99997 1.59961Z" fill="#EEEEEE" />
</svg>
