<svg width="16" height="16" viewBox="0 0 16 16" fill="none" xmlns="http://www.w3.org/2000/svg">
<path d="M2.61601 6.27051C2.73893 6.2547 2.86237 6.29616 2.95 6.38379L5.9998 9.43359L7.71758 7.7168C7.87379 7.56101 8.12692 7.56081 8.28301 7.7168C8.43922 7.87301 8.43922 8.12699 8.28301 8.2832L6.56523 10L9.61601 13.0508C9.70368 13.1384 9.74612 13.2618 9.73027 13.3848C9.71438 13.5075 9.64271 13.6161 9.53594 13.6787C8.52956 14.267 7.35616 14.5055 6.2 14.3564C5.04392 14.2074 3.96958 13.6797 3.14531 12.8555C2.32111 12.0313 1.79344 10.9568 1.64433 9.80078C1.49531 8.64461 1.73374 7.47123 2.32207 6.46484L2.37676 6.3916C2.43948 6.32545 2.52378 6.2824 2.61601 6.27051ZM2.77324 7.33789C2.45106 8.07666 2.33344 8.89243 2.4373 9.69824C2.56372 10.6788 3.01168 11.5899 3.71074 12.2891C4.40999 12.9883 5.32177 13.4361 6.30254 13.5625C7.10788 13.6663 7.92252 13.5484 8.66094 13.2266L2.77324 7.33789ZM10.9334 8.66699C10.9334 7.71221 10.5538 6.79622 9.87871 6.12109C9.20365 5.44618 8.28837 5.06646 7.33379 5.06641C7.11296 5.06641 6.93353 4.88779 6.9334 4.66699C6.9334 4.44608 7.11287 4.2666 7.33379 4.2666C8.50066 4.26666 9.62001 4.73055 10.4451 5.55566C11.2701 6.3808 11.7332 7.50015 11.7332 8.66699C11.7331 8.88772 11.5545 9.06629 11.3338 9.06641C11.113 9.06641 10.9335 8.88779 10.9334 8.66699ZM13.6004 8.66699C13.6004 7.00497 12.9397 5.41058 11.7645 4.23535C10.5893 3.06031 8.99563 2.40045 7.33379 2.40039C7.11287 2.40039 6.9334 2.22091 6.9334 2C6.9334 1.77909 7.11287 1.59961 7.33379 1.59961C9.20791 1.59967 11.0057 2.34472 12.3309 3.66992C13.6559 4.99515 14.4002 6.79292 14.4002 8.66699C14.4 8.88776 14.2206 9.06641 13.9998 9.06641C13.7792 9.06617 13.6006 8.88761 13.6004 8.66699Z" fill="#EEEEEE" />
</svg>
