<svg width="16" height="16" viewBox="0 0 16 16" fill="none" xmlns="http://www.w3.org/2000/svg">
<path d="M11.8884 3.40329C12.0837 3.20803 12.4001 3.208 12.5954 3.40329C12.7906 3.59859 12.7906 3.91503 12.5954 4.11033L8.70476 8.00095L12.5954 11.8916C12.7907 12.0869 12.7907 12.4043 12.5954 12.5996C12.4001 12.7946 12.0836 12.7946 11.8884 12.5996L7.99676 8.70798L4.11004 12.5957C3.91475 12.7909 3.5983 12.7909 3.40301 12.5957C3.20772 12.4004 3.20774 12.084 3.40301 11.8886L7.28973 8.00095L3.40301 4.11423C3.20771 3.91893 3.20771 3.60153 3.40301 3.40622C3.59822 3.21127 3.91479 3.21132 4.11004 3.40622L7.99773 7.29392L11.8884 3.40329Z" fill="#EEEEEE" />
</svg>
