<svg width="16" height="16" viewBox="0 0 16 16" fill="none" xmlns="http://www.w3.org/2000/svg">
<path d="M13.5918 5.21167C13.5757 5.09088 13.536 4.97411 13.4746 4.86792C13.393 4.72667 13.2759 4.6089 13.1348 4.5271L8.46777 1.86108L8.4668 1.86011C8.32491 1.77819 8.16383 1.73511 8 1.73511C7.83617 1.73511 7.67509 1.77819 7.5332 1.86011L7.53223 1.86108L2.86523 4.5271C2.7241 4.6089 2.60704 4.72667 2.52539 4.86792C2.44355 5.00958 2.40056 5.17014 2.40039 5.33374V10.6667C2.40064 10.8303 2.44356 10.991 2.52539 11.1326C2.60685 11.2734 2.72361 11.3907 2.86426 11.4724H2.86523L7.53223 14.1394L7.5332 14.1404C7.67509 14.2223 7.83617 14.2654 8 14.2654C8.16383 14.2654 8.32491 14.2223 8.4668 14.1404L8.46777 14.1394L13.1348 11.4724C13.2757 11.3906 13.393 11.2737 13.4746 11.1326C13.5564 10.991 13.5994 10.8303 13.5996 10.6667V5.33374L13.5918 5.21167ZM9.2002 7.99976C9.20002 7.3372 8.6626 6.80054 8 6.80054C7.33743 6.80056 6.79998 7.33722 6.7998 7.99976C6.7998 8.66244 7.33732 9.19992 8 9.19995C8.66271 9.19995 9.2002 8.66246 9.2002 7.99976ZM10 7.99976C10 9.10429 9.10453 9.99976 8 9.99976C6.89549 9.99973 6 9.10427 6 7.99976C6.00018 6.89539 6.8956 5.99978 8 5.99976C9.10442 5.99976 9.99982 6.89537 10 7.99976ZM14.4004 10.6667L14.3848 10.8933C14.355 11.1179 14.2811 11.3355 14.167 11.533C14.0149 11.796 13.7963 12.0148 13.5332 12.1667L13.5322 12.1677L8.86523 14.8337L8.86426 14.8328C8.60117 14.9843 8.30362 15.0652 8 15.0652C7.69609 15.0652 7.39804 14.9845 7.13477 14.8328V14.8337L2.46777 12.1677L2.4668 12.1667C2.20366 12.0148 1.98512 11.796 1.83301 11.533C1.71888 11.3355 1.64504 11.1179 1.61523 10.8933L1.59961 10.6667V5.33276C1.59995 5.02888 1.68094 4.73063 1.83301 4.46753C1.98512 4.20437 2.20356 3.98572 2.4668 3.83374L2.46777 3.83276L7.13477 1.16577V1.16675C7.39798 1.01505 7.69618 0.934326 8 0.934326C8.30354 0.934326 8.60122 1.01532 8.86426 1.16675L8.86523 1.16577L13.5322 3.83276L13.5332 3.83374C13.7964 3.98572 14.0149 4.20437 14.167 4.46753C14.3191 4.73063 14.4 5.02888 14.4004 5.33276V10.6667Z" fill="#EEEEEE" />
</svg>
