<svg width="16" height="16" viewBox="0 0 16 16" fill="none" xmlns="http://www.w3.org/2000/svg">
<path d="M5.64557 13.8589V14.6587H2.85162V13.8589H5.64557ZM13.1534 13.8589V14.6587H10.3594V13.8589H13.1534ZM13.8536 13.1587V10.3647C13.8534 9.97834 13.5398 9.66556 13.1534 9.66553H10.3594C9.97296 9.66553 9.65944 9.97832 9.65924 10.3647V13.1587C9.65937 13.5452 9.97292 13.8589 10.3594 13.8589V14.6587L10.2061 14.6509C9.50012 14.5793 8.93905 14.0179 8.86725 13.312L8.85944 13.1587V10.3647C8.85962 9.58817 9.44973 8.94924 10.2061 8.87256L10.3594 8.86475H13.1534L13.3067 8.87256C14.063 8.94935 14.6532 9.58825 14.6534 10.3647V13.1587L14.6456 13.312C14.5738 14.0179 14.0126 14.5792 13.3067 14.6509L13.1534 14.6587V13.8589C13.5399 13.8589 13.8534 13.5452 13.8536 13.1587ZM6.34576 13.1587V2.82764C6.34576 2.44104 6.03217 2.12744 5.64557 2.12744H2.85162C2.46502 2.12744 2.15143 2.44104 2.15143 2.82764V13.1587C2.15156 13.5452 2.46511 13.8589 2.85162 13.8589V14.6587L2.6983 14.6509C1.99238 14.5792 1.43122 14.0179 1.35944 13.312L1.35162 13.1587V2.82764C1.35162 1.99921 2.0232 1.32764 2.85162 1.32764H5.64557C6.474 1.32764 7.14557 1.99921 7.14557 2.82764V13.1587L7.13776 13.312C7.06596 14.0179 6.50487 14.5793 5.79889 14.6509L5.64557 14.6587V13.8589C6.03209 13.8589 6.34563 13.5452 6.34576 13.1587ZM13.1534 6.3208V7.12061H10.3594V6.3208H13.1534ZM13.8536 5.62061V2.82764C13.8536 2.44106 13.54 2.12747 13.1534 2.12744H10.3594C9.97284 2.12744 9.65924 2.44104 9.65924 2.82764V5.62061C9.65924 6.0072 9.97284 6.3208 10.3594 6.3208V7.12061L10.2061 7.11279C9.49994 7.04116 8.93878 6.48012 8.86725 5.77393L8.85944 5.62061V2.82764C8.85944 2.05091 9.44963 1.41216 10.2061 1.33545L10.3594 1.32764H13.1534L13.3067 1.33545C14.0631 1.41227 14.6534 2.05099 14.6534 2.82764V5.62061L14.6456 5.77393C14.5741 6.48006 14.0128 7.04106 13.3067 7.11279L13.1534 7.12061V6.3208C13.54 6.32077 13.8536 6.00719 13.8536 5.62061Z" fill="#EEEEEE" />
</svg>
