<svg width="16" height="16" viewBox="0 0 16 16" fill="none" xmlns="http://www.w3.org/2000/svg">
<path d="M2.27597 13.3328V2.66577C2.27606 2.20883 2.45774 1.77111 2.78085 1.448C3.10396 1.12489 3.54169 0.943201 3.99863 0.943115H9.99863C10.1021 0.943115 10.2019 0.984234 10.275 1.05737L13.608 4.39038C13.6811 4.46344 13.7222 4.56245 13.7223 4.66577V5.31323C13.7226 5.31973 13.7242 5.32619 13.7242 5.33276C13.7242 5.33934 13.7226 5.3458 13.7223 5.35229V13.3328C13.7223 13.7898 13.5406 14.2283 13.2174 14.5515C12.8942 14.8746 12.4556 15.0564 11.9986 15.0564H3.99863C3.54184 15.0563 3.10393 14.8744 2.78085 14.5515C2.45767 14.2283 2.27597 13.7898 2.27597 13.3328ZM10.6676 10.9431C10.883 10.9431 11.0572 11.1174 11.0572 11.3328C11.0572 11.5482 10.883 11.7224 10.6676 11.7224H5.33456C5.11917 11.7224 4.94394 11.5482 4.94394 11.3328C4.94394 11.1174 5.11917 10.9431 5.33456 10.9431H10.6676ZM10.6676 8.2771C10.8828 8.2771 11.057 8.45154 11.0572 8.66675C11.0572 8.88214 10.883 9.05737 10.6676 9.05737H5.33456C5.11917 9.05737 4.94394 8.88214 4.94394 8.66675C4.94415 8.45154 5.1193 8.2771 5.33456 8.2771H10.6676ZM6.66757 5.61011C6.8829 5.61011 7.05711 5.78445 7.05722 5.99976C7.05722 6.21515 6.88296 6.39038 6.66757 6.39038H5.33456C5.11917 6.39038 4.94394 6.21515 4.94394 5.99976C4.94404 5.78445 5.11924 5.61011 5.33456 5.61011H6.66757ZM9.72421 3.99976C9.7243 4.24983 9.82375 4.48992 10.0006 4.66675C10.1774 4.84357 10.4175 4.94308 10.6676 4.94312H12.942V4.8269L9.83749 1.72241H9.72421V3.99976ZM3.05527 13.3328C3.05527 13.5829 3.15483 13.8229 3.33163 13.9998C3.50847 14.1766 3.74856 14.276 3.99863 14.2761H11.9986C12.2487 14.2761 12.4887 14.1766 12.6656 13.9998C12.8425 13.8228 12.942 13.583 12.942 13.3328V5.72241H10.6676C10.2106 5.72238 9.77198 5.54069 9.44882 5.21753C9.12596 4.89446 8.94403 4.45651 8.94394 3.99976V1.72241H3.99863C3.74856 1.7225 3.50847 1.82195 3.33163 1.99878C3.1548 2.17561 3.05535 2.4157 3.05527 2.66577V13.3328Z" fill="#EEEEEE" />
</svg>
