<svg width="16" height="16" viewBox="0 0 16 16" fill="none" xmlns="http://www.w3.org/2000/svg">
<path d="M1.59961 12.667V10C1.59961 9.77909 1.77909 9.59961 2 9.59961C2.22091 9.59961 2.40039 9.77909 2.40039 10V12.667C2.40048 12.9144 2.49887 13.1512 2.67383 13.3262C2.84879 13.5011 3.08559 13.5995 3.33301 13.5996H12.667C12.9144 13.5995 13.1512 13.5011 13.3262 13.3262C13.5011 13.1512 13.5995 12.9144 13.5996 12.667V10C13.5996 9.77909 13.7791 9.59961 14 9.59961C14.2209 9.59961 14.4004 9.77909 14.4004 10V12.667C14.4003 13.1266 14.2176 13.5676 13.8926 13.8926C13.5676 14.2176 13.1266 14.4003 12.667 14.4004H3.33301C2.87342 14.4003 2.43241 14.2176 2.10742 13.8926C1.78244 13.5676 1.5997 13.1266 1.59961 12.667ZM7.59961 2C7.59961 1.77911 7.77911 1.59964 8 1.59961C8.22091 1.59961 8.40039 1.77909 8.40039 2V9.0332L11.0508 6.38379C11.207 6.22773 11.46 6.22765 11.6162 6.38379C11.7724 6.53995 11.7723 6.793 11.6162 6.94922L8.2832 10.2832C8.12699 10.4394 7.873 10.4394 7.7168 10.2832L4.38379 6.94922C4.22777 6.793 4.22766 6.53994 4.38379 6.38379C4.53994 6.22764 4.79299 6.22776 4.94922 6.38379L7.59961 9.0332V2Z" fill="#EEEEEE" />
</svg>
