<svg width="16" height="16" viewBox="0 0 16 16" fill="none" xmlns="http://www.w3.org/2000/svg">
<path d="M11.6913 3.07385C12.3535 3.07385 12.919 3.55339 13.0273 4.20667L14.2108 11.3512C14.3472 12.1757 13.7107 12.9254 12.8749 12.9254H3.12491C2.2891 12.9254 1.6526 12.1757 1.78897 11.3512L2.97354 4.20667C3.08179 3.55343 3.64636 3.0739 4.3085 3.07385H11.6913ZM7.54092 3.87463C7.82908 4.14477 8.14425 4.45383 8.44522 4.77307C8.76739 5.11482 9.08125 5.47352 9.33682 5.81018C9.58577 6.13813 9.80376 6.47772 9.9042 6.77502C10.386 8.20158 9.9556 9.505 8.99698 10.4772C8.44124 11.0407 7.85855 11.3571 7.27432 11.4625C6.69003 11.5679 6.13893 11.4556 5.65713 11.2213C4.71031 10.7608 3.99743 9.81785 3.69229 8.99182C3.61126 8.77244 3.51366 8.65336 3.43252 8.58655C3.35174 8.52007 3.26705 8.48954 3.18545 8.47717C3.14825 8.47155 3.11174 8.4695 3.07705 8.47034L2.57803 11.4821C2.5225 11.8192 2.78318 12.1256 3.12491 12.1256H5.12588C5.14468 12.1254 5.173 12.1246 5.20987 12.1237C5.28445 12.1217 5.39409 12.118 5.53018 12.11C5.80284 12.0939 6.18095 12.0619 6.60147 11.9977C7.45954 11.8666 8.42934 11.6109 9.06631 11.1393C10.0033 10.4454 10.9168 9.45464 11.0614 8.31506C11.1215 7.84145 11.1096 7.46399 10.9999 7.11682C10.8908 6.77179 10.6742 6.42129 10.2685 6.02209C9.79482 5.55612 9.58048 4.958 9.69034 4.38538C9.72543 4.20267 9.79559 4.03217 9.89053 3.87463H7.54092ZM11.0868 3.87463C10.7076 4.03179 10.5244 4.28651 10.4765 4.53577C10.4253 4.8024 10.5126 5.14039 10.829 5.45178C11.3022 5.91735 11.6045 6.3764 11.7626 6.87659C11.9199 7.37445 11.9235 7.87872 11.8554 8.41565C11.668 9.89168 10.5248 11.0541 9.5419 11.7819C9.36735 11.9111 9.17654 12.0246 8.97647 12.1256H12.8749C13.2166 12.1256 13.4773 11.8192 13.4218 11.4821L12.2372 4.33752C12.1929 4.07034 11.9621 3.87463 11.6913 3.87463H11.0868ZM6.19717 3.87463C6.78208 4.37244 7.46144 4.9767 7.99502 5.6217C8.40821 6.12119 8.76412 6.67591 8.92276 7.25842C9.08578 7.85704 9.03836 8.48272 8.6503 9.07288C8.33776 9.54814 7.97348 9.88397 7.56143 10.0592C7.14235 10.2374 6.70925 10.2339 6.29971 10.0924C5.50707 9.81851 4.81418 9.03612 4.30948 8.06213C4.09489 7.64801 3.76562 7.46569 3.47745 7.38245C3.4019 7.36063 3.32988 7.34536 3.26455 7.33557L3.20889 7.67542C3.24042 7.67795 3.2727 7.68117 3.30557 7.68616C3.508 7.71685 3.73308 7.79701 3.94131 7.96838C4.14924 8.13959 4.32066 8.3853 4.44229 8.71448C4.69038 9.38612 5.28059 10.148 6.00772 10.5016C6.36288 10.6742 6.74162 10.746 7.13272 10.6754C7.52395 10.6048 7.96303 10.3857 8.42666 9.91565C9.20443 9.12696 9.51817 8.1315 9.14639 7.03088C9.0896 6.86278 8.93841 6.60978 8.69912 6.29456C8.46647 5.98808 8.17375 5.65132 7.86319 5.3219C7.29701 4.72134 6.69256 4.1673 6.33194 3.87463H6.19717ZM4.3085 3.87463C4.03771 3.87468 3.80687 4.07037 3.7626 4.33752L3.39541 6.54651C3.48876 6.56097 3.59122 6.58274 3.69912 6.61389C4.14012 6.74128 4.67915 7.03737 5.01944 7.69397C5.48652 8.59537 6.05349 9.16117 6.56045 9.33655C6.80072 9.41957 7.02814 9.41628 7.24795 9.32288C7.47478 9.22645 7.72881 9.01894 7.98233 8.63342C8.22704 8.26118 8.26175 7.87765 8.1503 7.46838C8.0344 7.04314 7.75898 6.59104 7.37881 6.13147C6.65435 5.25572 5.65481 4.46736 4.96182 3.87463H4.3085Z" fill="#EEEEEE" />
</svg>
