<svg width="16" height="16" viewBox="0 0 16 16" fill="none" xmlns="http://www.w3.org/2000/svg">
<path d="M7.99921 2.39978C8.16093 2.39978 8.30737 2.49748 8.36932 2.64685C8.43124 2.79632 8.39681 2.96897 8.28241 3.08337C7.02309 4.34295 7.02393 6.45771 8.28339 7.71716C9.54316 8.97672 11.6565 8.97665 12.9162 7.71716C13.0306 7.60276 13.2033 7.56834 13.3527 7.63025C13.5019 7.69216 13.5996 7.83788 13.5998 7.99939C13.5998 11.092 11.0918 13.6 7.99921 13.6C4.9068 13.5997 2.3996 11.0919 2.3996 7.99939C2.39984 4.90714 4.90695 2.40003 7.99921 2.39978ZM3.20038 7.99939C3.20038 10.65 5.34863 12.7989 7.99921 12.7992C10.3498 12.7992 12.3041 11.1094 12.717 8.8783C11.1528 9.81846 9.05635 9.62081 7.71796 8.28259C6.37973 6.94436 6.17965 4.84526 7.1203 3.28064C4.88963 3.69367 3.2006 5.64918 3.20038 7.99939Z" fill="#EEEEEE" />
</svg>
