<svg width="16" height="16" viewBox="0 0 16 16" fill="none" xmlns="http://www.w3.org/2000/svg">
<path d="M4.00027 10.4005C4.00027 10.3275 4.02079 10.2592 4.05496 10.2003H2.40067V11.0001C2.40072 11.2122 2.48506 11.4156 2.63504 11.5656C2.78505 11.7155 2.98839 11.7999 3.20047 11.7999H4.00027V10.4005ZM5.20047 7.39954V6.20032C5.20047 5.97953 5.37914 5.80012 5.59988 5.79993C5.8208 5.79993 6.00027 5.9794 6.00027 6.20032V7.39954C6.00027 7.62045 5.8208 7.79993 5.59988 7.79993C5.37914 7.79973 5.20047 7.62033 5.20047 7.39954ZM7.59988 7.39954V6.20032C7.59988 5.9794 7.77936 5.79993 8.00027 5.79993C8.22108 5.80006 8.39969 5.97948 8.39969 6.20032V7.39954C8.39969 7.62037 8.22108 7.79979 8.00027 7.79993C7.77936 7.79993 7.59988 7.62045 7.59988 7.39954ZM9.9993 7.39954V6.20032C9.9993 5.97943 10.1788 5.79998 10.3997 5.79993C10.6206 5.79993 10.8001 5.9794 10.8001 6.20032V7.39954C10.8001 7.62045 10.6206 7.79993 10.3997 7.79993C10.1788 7.79988 9.9993 7.62042 9.9993 7.39954ZM13.5999 5.00012C13.5999 4.78795 13.5155 4.58472 13.3655 4.43469C13.2155 4.28466 13.0123 4.20032 12.8001 4.20032H3.20047C2.9883 4.20032 2.78507 4.28466 2.63504 4.43469C2.48501 4.58472 2.40067 4.78795 2.40067 5.00012V5.37122C2.61211 5.48152 2.79823 5.63714 2.94266 5.8302C3.14957 6.10685 3.26102 6.44372 3.26102 6.78918C3.26094 7.13451 3.14948 7.47065 2.94266 7.74719C2.79824 7.94028 2.61212 8.09586 2.40067 8.20618V9.40051H13.5999V8.22766C13.3886 8.11737 13.2022 7.96259 13.0579 7.76965C12.851 7.49301 12.7395 7.15613 12.7395 6.81067C12.7396 6.46535 12.8511 6.12921 13.0579 5.85266C13.2024 5.65945 13.3883 5.50303 13.5999 5.3927V5.00012ZM4.80008 11.7999H6.39969V10.4005C6.39969 10.3276 6.42026 10.2592 6.45438 10.2003H4.74539C4.77952 10.2592 4.80008 10.3275 4.80008 10.4005V11.7999ZM7.19949 11.7999H8.80008V10.4005C8.80008 10.3276 8.82066 10.2592 8.85477 10.2003H7.14481C7.17899 10.2592 7.19949 10.3275 7.19949 10.4005V11.7999ZM9.59988 11.7999H11.2005V10.4005C11.2005 10.3275 11.221 10.2593 11.2552 10.2003H9.5452C9.57939 10.2593 9.59988 10.3275 9.59988 10.4005V11.7999ZM12.0003 11.7999H12.8001C13.0122 11.7999 13.2155 11.7155 13.3655 11.5656C13.5155 11.4156 13.5998 11.2122 13.5999 11.0001V10.2003H11.9456C11.9797 10.2592 12.0003 10.3276 12.0003 10.4005V11.7999ZM14.4007 5.66028C14.4005 5.83748 14.2835 5.99394 14.1136 6.04407C13.9479 6.09287 13.802 6.19383 13.6985 6.33215C13.5953 6.47033 13.5394 6.63817 13.5393 6.81067C13.5393 6.98336 13.5951 7.15186 13.6985 7.29016C13.802 7.42848 13.9479 7.52944 14.1136 7.57825C14.2836 7.62842 14.4006 7.78476 14.4007 7.96204V11.0001C14.4006 11.4243 14.2317 11.831 13.9319 12.131C13.6319 12.431 13.2244 12.5997 12.8001 12.5997H3.20047C2.77612 12.5997 2.36869 12.431 2.06863 12.131C1.7688 11.831 1.59994 11.4243 1.59988 11.0001V7.93958C1.60004 7.76238 1.71701 7.60591 1.88699 7.55579C2.05269 7.50698 2.19858 7.40602 2.30203 7.2677C2.40529 7.12952 2.46113 6.96168 2.46121 6.78918C2.46121 6.61649 2.40544 6.448 2.30203 6.30969C2.19858 6.17137 2.05269 6.07041 1.88699 6.02161C1.71697 5.97143 1.59992 5.8151 1.59988 5.63782V5.00012C1.59988 4.57578 1.76858 4.16834 2.06863 3.86829C2.36869 3.56823 2.77612 3.39954 3.20047 3.39954H12.8001C13.2244 3.39954 13.6319 3.56823 13.9319 3.86829C14.232 4.16834 14.4007 4.57578 14.4007 5.00012V5.66028Z" fill="#EEEEEE" />
</svg>
