<svg width="16" height="16" viewBox="0 0 16 16" fill="none" xmlns="http://www.w3.org/2000/svg">
<path d="M9.00294 13.5996C9.22373 13.5998 9.40235 13.7792 9.40235 14C9.40235 14.2208 9.22373 14.4002 9.00294 14.4004H3.16895C2.94822 14.4002 2.76954 14.2208 2.76954 14C2.76954 13.7792 2.94822 13.5998 3.16895 13.5996H9.00294ZM11.9336 4.41406C11.9336 4.14523 11.8268 3.88741 11.6367 3.69727C11.4465 3.50706 11.1879 3.40039 10.919 3.40039C10.6501 3.40049 10.3923 3.50716 10.2022 3.69727L4.19337 9.70605V9.70703C4.08263 9.81763 4.00113 9.95432 3.95704 10.1045L3.43165 11.9014L5.2295 11.376C5.37985 11.3321 5.51713 11.2513 5.62794 11.1406L11.6367 5.13184C11.8269 4.94163 11.9336 4.68305 11.9336 4.41406ZM12.7334 4.41406C12.7334 4.89522 12.5424 5.35703 12.2022 5.69727L6.19337 11.7061C5.98757 11.9117 5.73335 12.063 5.45411 12.1445L3.53907 12.7041C3.4129 12.7409 3.27869 12.7435 3.15137 12.7109C3.02402 12.6783 2.90742 12.6115 2.81446 12.5186C2.72174 12.4257 2.65568 12.3097 2.62305 12.1826C2.59043 12.0553 2.59308 11.9211 2.62989 11.7949L3.18946 9.87891L3.26368 9.6748C3.35028 9.47606 3.47362 9.29471 3.62794 9.14062L9.63673 3.13184C9.97686 2.7917 10.4379 2.59971 10.919 2.59961C11.4001 2.59961 11.8619 2.7916 12.2022 3.13184C12.5422 3.47201 12.7334 3.93306 12.7334 4.41406Z" fill="#EEEEEE" />
</svg>
