<svg width="16" height="16" viewBox="0 0 16 16" fill="none" xmlns="http://www.w3.org/2000/svg">
<path d="M1.59961 9.7998V6.2002C1.59961 5.77584 1.76829 5.36843 2.06836 5.06836C2.36843 4.76829 2.77584 4.59961 3.2002 4.59961H4.40039C4.62117 4.59977 4.7998 4.77919 4.7998 5C4.7998 5.22081 4.62117 5.40023 4.40039 5.40039H3.2002C2.98801 5.40039 2.7848 5.48473 2.63477 5.63477C2.48473 5.7848 2.40039 5.98801 2.40039 6.2002V9.7998C2.40039 10.012 2.48473 10.2162 2.63477 10.3662C2.78477 10.516 2.98819 10.6006 3.2002 10.6006H3.7998C4.02064 10.6006 4.20007 10.7792 4.2002 11C4.2002 11.2209 4.02072 11.4004 3.7998 11.4004H3.2002C2.77584 11.4004 2.36843 11.2317 2.06836 10.9316C1.76836 10.6316 1.59961 10.2241 1.59961 9.7998ZM11.2002 9.7998V6.2002C11.2002 5.98807 11.1158 5.78479 10.9658 5.63477C10.8158 5.48475 10.6125 5.40041 10.4004 5.40039H9.7998C9.57911 5.40013 9.40039 5.22076 9.40039 5C9.40039 4.77924 9.57911 4.59987 9.7998 4.59961H10.4004C10.8245 4.59963 11.2312 4.76854 11.5312 5.06836C11.8313 5.36843 12 5.77584 12 6.2002V9.7998C12 10.2242 11.8313 10.6316 11.5312 10.9316C11.2312 11.2315 10.8246 11.4004 10.4004 11.4004H9.2002C8.97931 11.4004 8.7998 11.2209 8.7998 11C8.79993 10.7792 8.97939 10.6006 9.2002 10.6006H10.4004C10.6124 10.6006 10.8158 10.5161 10.9658 10.3662C11.1159 10.2162 11.2002 10.012 11.2002 9.7998ZM7.05762 4.79395C7.17137 4.60479 7.41713 4.54364 7.60645 4.65723C7.79556 4.77099 7.85674 5.01676 7.74316 5.20605L6.30664 7.60059H8C8.14407 7.60059 8.27762 7.67739 8.34863 7.80273C8.41963 7.92814 8.41692 8.08248 8.34277 8.20605L6.54297 11.2061C6.42928 11.3954 6.18354 11.4564 5.99414 11.3428C5.80501 11.229 5.74384 10.9833 5.85742 10.7939L7.29297 8.40039H5.60059C5.45648 8.40039 5.32296 8.32267 5.25195 8.19727C5.18095 8.07186 5.18269 7.91752 5.25684 7.79395L7.05762 4.79395ZM13.5996 8.59961V7.40039C13.5996 7.17948 13.7791 7 14 7C14.2209 7 14.4004 7.17948 14.4004 7.40039V8.59961C14.4004 8.82052 14.2209 9 14 9C13.7791 9 13.5996 8.82052 13.5996 8.59961Z" fill="#EEEEEE" />
</svg>
