<svg width="16" height="16" viewBox="0 0 16 16" fill="none" xmlns="http://www.w3.org/2000/svg">
<path d="M13.6237 5.68051C13.6994 5.47312 13.929 5.36582 14.1364 5.44125C14.3438 5.51693 14.4511 5.74653 14.3756 5.95395C13.8985 7.26147 13.0308 8.39143 11.8903 9.1893C10.7498 9.98711 9.39148 10.4149 7.99966 10.4149C6.60784 10.4149 5.24949 9.98711 4.10904 9.1893C2.96856 8.39143 2.10082 7.26147 1.62368 5.95395C1.54825 5.74653 1.65555 5.51693 1.86294 5.44125C2.07036 5.36582 2.29996 5.47312 2.37564 5.68051C2.79656 6.83373 3.56209 7.82931 4.56802 8.53305C5.57406 9.23685 6.77187 9.61508 7.99966 9.61508C9.22745 9.61508 10.4253 9.23685 11.4313 8.53305C12.4372 7.82931 13.2028 6.83373 13.6237 5.68051Z" fill="#EEEEEE" />
</svg>
