<svg width="16" height="16" viewBox="0 0 16 16" fill="none" xmlns="http://www.w3.org/2000/svg">
<path d="M7.99999 3.40015C9.35636 3.40015 10.6823 3.80303 11.8096 4.55737C12.9368 5.31183 13.8148 6.38449 14.332 7.63843C14.3338 7.64283 14.3362 7.64763 14.3379 7.6521C14.4211 7.87654 14.4212 8.12396 14.3379 8.34839C14.3363 8.35275 14.3338 8.35678 14.332 8.36108C13.8148 9.61514 12.9369 10.6876 11.8096 11.4421C10.7527 12.1494 9.52137 12.5475 8.25389 12.5945L7.99999 12.5994C6.64355 12.5994 5.3177 12.1966 4.19042 11.4421C3.06309 10.6876 2.18516 9.61514 1.66796 8.36108C1.66618 8.35678 1.66372 8.35275 1.6621 8.34839C1.57879 8.12396 1.57885 7.87654 1.6621 7.6521L1.66796 7.63843C2.18517 6.38449 3.06317 5.31183 4.19042 4.55737C5.31766 3.80304 6.64362 3.40015 7.99999 3.40015ZM7.99999 4.20093C6.8019 4.20093 5.63042 4.55602 4.63475 5.22241C3.64195 5.88692 2.8684 6.8308 2.41112 7.93433C2.39628 7.97701 2.39617 8.02351 2.41112 8.06616C2.86839 9.16941 3.64219 10.1127 4.63475 10.7771C5.63042 11.4435 6.8019 11.7996 7.99999 11.7996L8.2246 11.7957C9.344 11.7541 10.4319 11.4018 11.3652 10.7771C12.3577 10.1128 13.1306 9.16926 13.5879 8.06616C13.603 8.02332 13.6029 7.9772 13.5879 7.93433C13.1306 6.83094 12.3579 5.88685 11.3652 5.22241C10.3696 4.55602 9.19808 4.20093 7.99999 4.20093ZM8.79979 7.99976C8.79963 7.55807 8.44171 7.19996 7.99999 7.19995C7.55826 7.19995 7.20034 7.55806 7.20018 7.99976C7.20018 8.44158 7.55816 8.80054 7.99999 8.80054C8.44181 8.80053 8.79979 8.44158 8.79979 7.99976ZM9.5996 7.99976C9.5996 8.88341 8.88364 9.60034 7.99999 9.60034C7.11633 9.60034 6.40038 8.88341 6.40038 7.99976C6.40054 7.11623 7.11643 6.40015 7.99999 6.40015C8.88354 6.40015 9.59944 7.11624 9.5996 7.99976Z" fill="#EEEEEE" />
</svg>
