<svg width="16" height="16" viewBox="0 0 16 16" fill="none" xmlns="http://www.w3.org/2000/svg">
<path d="M10.0003 12.267C10.221 12.2671 10.3996 12.4457 10.3997 12.6664C10.3997 12.8872 10.2211 13.0666 10.0003 13.0668H6.00034C5.77942 13.0668 5.59995 12.8873 5.59995 12.6664C5.60012 12.4456 5.77953 12.267 6.00034 12.267H10.0003ZM12.0003 7.59998C12.2211 7.60015 12.3997 7.77956 12.3997 8.00037C12.3996 8.22102 12.221 8.3996 12.0003 8.39978H4.00034C3.77953 8.39978 3.60012 8.22113 3.59995 8.00037C3.59995 7.77945 3.77942 7.59998 4.00034 7.59998H12.0003ZM14.6664 2.93298C14.8873 2.93298 15.0667 3.11246 15.0667 3.33337C15.0667 3.55429 14.8873 3.73376 14.6664 3.73376H1.33334C1.11243 3.73376 0.932953 3.55429 0.932953 3.33337C0.932953 3.11246 1.11243 2.93298 1.33334 2.93298H14.6664Z" fill="#EEEEEE" />
</svg>
