<svg width="16" height="16" viewBox="0 0 16 16" fill="none" xmlns="http://www.w3.org/2000/svg">
<path d="M7.59961 14.0007V12.5818C5.37846 12.3902 3.61039 10.6213 3.41895 8.40015H2C1.77909 8.40015 1.59961 8.22067 1.59961 7.99976C1.59974 7.77895 1.77917 7.60034 2 7.60034H3.41895C3.61017 5.37895 5.37828 3.60928 7.59961 3.41772V1.99976C7.59961 1.77884 7.77909 1.59937 8 1.59937C8.22091 1.59937 8.40039 1.77884 8.40039 1.99976V3.41772C10.6217 3.60928 12.3898 5.37894 12.5811 7.60034H14C14.2208 7.60034 14.4003 7.77895 14.4004 7.99976C14.4004 8.22067 14.2209 8.40015 14 8.40015H12.5811C12.3896 10.6213 10.6215 12.3902 8.40039 12.5818V14.0007C8.40014 14.2214 8.22076 14.4001 8 14.4001C7.77924 14.4001 7.59986 14.2214 7.59961 14.0007ZM8 4.19995C5.90134 4.19995 4.20033 5.90107 4.2002 7.99976C4.2002 10.0986 5.90126 11.8005 8 11.8005C10.0987 11.8005 11.7998 10.0986 11.7998 7.99976C11.7997 5.90107 10.0987 4.19995 8 4.19995ZM9.40039 7.99976C9.40025 7.22664 8.77315 6.60034 8 6.60034C7.22686 6.60035 6.59975 7.22665 6.59961 7.99976C6.59961 8.77299 7.22677 9.40014 8 9.40015C8.77324 9.40015 9.40039 8.77299 9.40039 7.99976ZM10.2002 7.99976C10.2002 9.21482 9.21506 10.2 8 10.2C6.78495 10.1999 5.7998 9.21481 5.7998 7.99976C5.79995 6.78482 6.78503 5.79957 8 5.79956C9.21498 5.79956 10.2001 6.78481 10.2002 7.99976Z" fill="#EEEEEE" />
</svg>
