<svg width="16" height="16" viewBox="0 0 16 16" fill="none" xmlns="http://www.w3.org/2000/svg">
<path d="M2.78644 9.79665C2.78644 8.72452 4.08605 8.18989 4.84015 8.95192L9.16827 13.3279H9.44757C9.66848 13.3279 9.84796 13.5074 9.84796 13.7283C9.84785 13.9491 9.66842 14.1277 9.44757 14.1277H2.74152C2.5207 14.1277 2.34129 13.9491 2.34113 13.7283C2.34113 13.5074 2.5206 13.3279 2.74152 13.3279H2.78644V9.79665ZM5.89484 3.64528C6.05105 3.48943 6.30416 3.48925 6.46027 3.64528L6.77472 3.96071L9.11456 6.30055L10.4886 4.92751C10.6448 4.7713 10.8988 4.7713 11.055 4.92751C11.2109 5.08367 11.211 5.33678 11.055 5.49294L9.68097 6.86598L12.0218 9.2068L12.3362 9.52223C12.4925 9.67844 12.4925 9.93145 12.3362 10.0877C12.18 10.2437 11.927 10.2438 11.7708 10.0877L11.7278 10.0447C10.91 10.7599 10.016 11.1292 9.09894 11.1179C8.07375 11.1053 7.09122 10.6199 6.22687 9.75563C5.36238 8.89114 4.87614 7.90797 4.86359 6.88259C4.85243 5.9656 5.22068 5.07053 5.93585 4.2527L5.89484 4.21169C5.73863 4.05548 5.73863 3.80149 5.89484 3.64528ZM6.50226 4.81911C5.91389 5.50669 5.65529 6.20564 5.66339 6.87282C5.67275 7.63744 6.03406 8.43196 6.7923 9.1902C7.55036 9.94819 8.34426 10.3087 9.1087 10.3181C9.77594 10.3263 10.4748 10.0677 11.1624 9.47927L6.50226 4.81911ZM10.5735 2.07106C11.4661 2.07999 12.3203 2.43892 12.9515 3.07009C13.5825 3.70117 13.9405 4.55466 13.9495 5.44704C13.9517 5.66785 13.7748 5.84898 13.554 5.85134C13.3331 5.85354 13.1519 5.67575 13.1497 5.45485C13.1428 4.77185 12.8681 4.1185 12.3851 3.63552C11.902 3.1526 11.2488 2.87867 10.5657 2.87184C10.3449 2.86956 10.1681 2.68836 10.1702 2.46755C10.1724 2.24675 10.3528 2.06903 10.5735 2.07106ZM3.58722 13.3279H8.04327L4.27081 9.5154C4.01945 9.26135 3.58722 9.43926 3.58722 9.79665V13.3279Z" fill="#EEEEEE" />
</svg>
