<svg width="16" height="16" viewBox="0 0 16 16" fill="none" xmlns="http://www.w3.org/2000/svg">
<path d="M13.5996 7.99988C13.5996 4.90708 11.0928 2.40027 8.00002 2.40027C4.90722 2.40027 2.40041 4.90708 2.40041 7.99988C2.40041 11.0927 4.90722 13.5995 8.00002 13.5995C11.0928 13.5995 13.5996 11.0927 13.5996 7.99988ZM7.59962 10.4003V7.99988C7.59969 7.77902 7.77914 7.60046 8.00002 7.60046C8.22088 7.60047 8.40034 7.77903 8.40041 7.99988V10.4003C8.40026 10.6211 8.22083 10.7997 8.00002 10.7997C7.77919 10.7997 7.59977 10.6211 7.59962 10.4003ZM8.00685 5.20007C8.22768 5.20017 8.40627 5.37961 8.40627 5.60046C8.406 5.82109 8.22752 5.99978 8.00685 5.99988H8.00002C7.77926 5.99988 7.59989 5.82115 7.59962 5.60046C7.59962 5.37955 7.7791 5.20007 8.00002 5.20007H8.00685ZM14.4004 7.99988C14.4004 11.5345 11.5346 14.4003 8.00002 14.4003C4.46539 14.4003 1.59962 11.5345 1.59962 7.99988C1.59962 4.46526 4.46539 1.59949 8.00002 1.59949C11.5346 1.59949 14.4004 4.46526 14.4004 7.99988Z" fill="#EEEEEE" />
</svg>
