<svg width="16" height="16" viewBox="0 0 16 16" fill="none" xmlns="http://www.w3.org/2000/svg">
<path d="M13.1924 8.00017C13.1924 7.29272 13.0297 6.59464 12.7168 5.96014C12.4039 5.3256 11.949 4.77169 11.3877 4.34099C10.8264 3.9103 10.1734 3.61379 9.47949 3.47576C8.78584 3.33786 8.06986 3.3621 7.38672 3.5451C7.17337 3.60226 6.95371 3.47521 6.89648 3.26189C6.83931 3.04851 6.9663 2.82884 7.17969 2.77166C7.98138 2.55693 8.82172 2.5297 9.63574 2.69158C10.45 2.85355 11.2163 3.20083 11.875 3.70623C12.5335 4.21155 13.0674 4.86122 13.4346 5.60564C13.8018 6.35024 13.9922 7.16996 13.9922 8.00017C13.9922 8.83025 13.8017 9.64924 13.4346 10.3937C13.0674 11.1383 12.5337 11.7887 11.875 12.2941C11.2164 12.7995 10.45 13.1468 9.63574 13.3088C8.82169 13.4706 7.98141 13.4425 7.17969 13.2277C6.96638 13.1706 6.83946 12.9518 6.89648 12.7385C6.95366 12.5251 7.17333 12.3981 7.38672 12.4553C8.06987 12.6382 8.78584 12.6615 9.47949 12.5236C10.1733 12.3856 10.8264 12.09 11.3877 11.6594C11.9489 11.2287 12.4039 10.6747 12.7168 10.0402C13.0297 9.40573 13.1924 8.70761 13.1924 8.00017ZM1.83008 3.02264C1.97057 2.95683 2.13664 2.97808 2.25586 3.07732L7.79492 7.69256C7.88605 7.76855 7.93848 7.88151 7.93848 8.00017C7.93845 8.11884 7.88608 8.23182 7.79492 8.30779L2.25586 12.923C2.13665 13.0222 1.97053 13.0435 1.83008 12.9777C1.68964 12.9118 1.59961 12.7705 1.59961 12.6154V3.38494C1.59961 3.22984 1.68969 3.08852 1.83008 3.02264ZM2.40039 11.7599L6.91309 7.9992L2.40039 4.23846V11.7599Z" fill="#EEEEEE" />
</svg>
