<svg width="16" height="16" viewBox="0 0 16 16" fill="none" xmlns="http://www.w3.org/2000/svg">
<path d="M9.12324 3.75977C9.12324 2.98472 8.49497 2.35645 7.71992 2.35645C6.94487 2.35645 6.3166 2.98472 6.3166 3.75977C6.31679 4.53465 6.94499 5.16308 7.71992 5.16309C8.49484 5.16309 9.12304 4.53465 9.12324 3.75977ZM4.28925 5.97461C4.16236 5.99661 4.04194 6.04889 3.93867 6.12793C3.80152 6.23304 3.70064 6.3797 3.65351 6.5459L3.65449 6.54688L2.15546 11.9736L2.15644 11.9746C2.12612 12.092 2.12277 12.2152 2.14668 12.334C2.17062 12.4526 2.22089 12.5648 2.29414 12.6611C2.36738 12.7574 2.46165 12.8358 2.56953 12.8906C2.67758 12.9455 2.79701 12.9753 2.91816 12.9775H12.5285C12.6523 12.9775 12.7751 12.9487 12.8859 12.8936C12.9966 12.8385 13.0935 12.7587 13.1682 12.6602C13.2429 12.5616 13.2935 12.4467 13.3166 12.3252C13.3339 12.2339 13.3351 12.1401 13.3205 12.0488L13.301 11.959L11.7834 6.57324L11.7805 6.56445C11.7363 6.39346 11.6374 6.24157 11.4982 6.13281C11.3938 6.0512 11.2711 5.99713 11.1418 5.97461L11.0109 5.96289H4.41816L4.28925 5.97461ZM9.92304 3.75977C9.92296 4.29305 9.73352 4.78198 9.41816 5.16309H11.0178C11.3706 5.16609 11.7124 5.28572 11.9904 5.50293C12.2684 5.72017 12.4676 6.02265 12.5559 6.36426H12.5549L14.0715 11.7422L14.1105 11.9229C14.1396 12.1051 14.1373 12.2914 14.1027 12.4736C14.0567 12.7164 13.955 12.9456 13.8059 13.1426C13.6565 13.3397 13.4628 13.5003 13.2414 13.6104C13.0202 13.7202 12.7765 13.7772 12.5295 13.7773H2.90351C2.66168 13.7729 2.42392 13.7139 2.2082 13.6045C1.99231 13.4949 1.8039 13.3373 1.65742 13.1445C1.51098 12.9518 1.41023 12.7285 1.3625 12.4912C1.31476 12.2539 1.32147 12.0088 1.38203 11.7744L1.383 11.7686L2.883 6.33398L2.88398 6.33203C2.97763 5.99848 3.17639 5.70394 3.45136 5.49316C3.72647 5.28232 4.06279 5.16674 4.40937 5.16309H6.02168C5.70632 4.78198 5.51688 4.29305 5.51679 3.75977C5.51679 2.54289 6.50304 1.55567 7.71992 1.55566C8.93679 1.55566 9.92304 2.54289 9.92304 3.75977Z" fill="#EEEEEE" />
</svg>
