<svg width="16" height="16" viewBox="0 0 16 16" fill="none" xmlns="http://www.w3.org/2000/svg">
<path d="M13.5996 13.1426C13.5995 12.8902 13.395 12.6855 13.1426 12.6855C12.8903 12.6857 12.6857 12.8903 12.6855 13.1426C12.6855 13.395 12.8902 13.5995 13.1426 13.5996C13.3951 13.5996 13.5996 13.3951 13.5996 13.1426ZM7.02148 7.3623C5.85967 7.97823 4.57454 8.33037 3.25684 8.38965V11.9512C3.62949 12.0761 3.92389 12.3705 4.04883 12.7432H11.9512C12.0761 12.3705 12.3705 12.0761 12.7432 11.9512V11.8125C11.1496 11.6974 9.67542 10.8998 8.70898 9.61133L7.02148 7.3623ZM12.7432 4.98145C11.2857 5.0535 9.87162 5.51886 8.65332 6.33105L7.79004 6.90625C7.76534 6.92271 7.73968 6.9379 7.71484 6.9541L9.34863 9.13184C10.1639 10.2187 11.4019 10.8964 12.7432 11.0098V4.98145ZM3.25684 7.58887C4.39946 7.53237 5.51454 7.23429 6.53027 6.7168C5.71621 5.71907 4.53419 5.09721 3.25684 4.98926V7.58887ZM4.04883 3.25684C3.92393 3.62939 3.62935 3.92286 3.25684 4.04785V4.18652C4.81897 4.29935 6.26458 5.07034 7.23145 6.31445C7.26968 6.28989 7.30882 6.26645 7.34668 6.24121L8.20996 5.66504C9.55969 4.76522 11.1277 4.25333 12.7432 4.18066V4.04785C12.3707 3.92286 12.0761 3.62939 11.9512 3.25684H4.04883ZM2.40039 13.1426C2.40039 13.3951 2.60495 13.5996 2.85742 13.5996C3.10977 13.5995 3.31445 13.395 3.31445 13.1426C3.3143 12.8903 3.10967 12.6857 2.85742 12.6855C2.60504 12.6855 2.40054 12.8902 2.40039 13.1426ZM13.5996 2.85742C13.5996 2.60495 13.3951 2.40039 13.1426 2.40039C12.8902 2.40054 12.6855 2.60504 12.6855 2.85742C12.6857 3.10967 12.8903 3.3143 13.1426 3.31445C13.395 3.31445 13.5995 3.10977 13.5996 2.85742ZM2.40039 2.85742C2.40054 3.10977 2.60504 3.31445 2.85742 3.31445C3.10967 3.3143 3.3143 3.10967 3.31445 2.85742C3.31445 2.60504 3.10977 2.40054 2.85742 2.40039C2.60495 2.40039 2.40039 2.60495 2.40039 2.85742ZM14.4004 2.85742C14.4003 3.41156 14.0408 3.88063 13.543 4.04785V11.9512C14.041 12.1183 14.4003 12.5883 14.4004 13.1426C14.4004 13.8369 13.8369 14.4004 13.1426 14.4004C12.5884 14.4003 12.1194 14.0408 11.9521 13.543H4.04785C3.88063 14.0408 3.41156 14.4003 2.85742 14.4004C2.16312 14.4004 1.59961 13.8369 1.59961 13.1426C1.59973 12.5883 1.95905 12.1183 2.45703 11.9512V4.04785C1.9592 3.88063 1.59973 3.41156 1.59961 2.85742C1.59961 2.16312 2.16312 1.59961 2.85742 1.59961C3.41156 1.59973 3.88063 1.9592 4.04785 2.45703H11.9521C12.1194 1.9592 12.5884 1.59973 13.1426 1.59961C13.8369 1.59961 14.4004 2.16312 14.4004 2.85742Z" fill="#EEEEEE" />
</svg>
