<svg width="16" height="16" viewBox="0 0 16 16" fill="none" xmlns="http://www.w3.org/2000/svg">
<path d="M5.65347 2.43032C6.93372 1.92678 8.34591 1.863 9.66617 2.24966L9.55289 2.63344L9.44058 3.01723C8.2908 2.68061 7.06135 2.73595 5.94644 3.17446C4.83144 3.61303 3.89376 4.41024 3.2814 5.44008C2.66905 6.46995 2.4174 7.67482 2.56461 8.86391C2.7119 10.0528 3.24996 11.1591 4.09488 12.0084C4.93986 12.8578 6.04337 13.4019 7.2316 13.5553C8.41994 13.7087 9.62627 13.4631 10.6593 12.8561C11.6922 12.2491 12.4933 11.3154 12.9377 10.2028C13.382 9.0901 13.4441 7.86119 13.1134 6.70962L13.882 6.48891C14.2617 7.81109 14.191 9.22213 13.6808 10.4997C13.1706 11.777 12.2504 12.8487 11.0646 13.5456C9.87849 14.2425 8.49345 14.5254 7.12906 14.3493C5.7648 14.1731 4.49765 13.5481 3.5275 12.5729C2.55727 11.5976 1.93968 10.3269 1.77066 8.96157C1.60168 7.59633 1.89082 6.21332 2.5939 5.03091C3.29694 3.84866 4.37347 2.93386 5.65347 2.43032ZM6.14859 4.8395C6.85072 4.46871 7.65193 4.32759 8.43863 4.4352L8.38394 4.83169L8.33023 5.22817C7.7092 5.14322 7.0769 5.25482 6.52261 5.54751C5.9683 5.84024 5.51945 6.29918 5.23941 6.86001C4.9594 7.42081 4.86203 8.05551 4.96109 8.67446C5.0602 9.29326 5.35022 9.86586 5.79117 10.3112C6.23223 10.7566 6.80212 11.0527 7.42007 11.1579C8.03806 11.263 8.67392 11.1717 9.23746 10.8971C9.80091 10.6226 10.2646 10.178 10.5627 9.62661C10.8606 9.07538 10.9783 8.44452 10.8996 7.8229L11.6925 7.72133C11.7925 8.50905 11.6434 9.30899 11.2658 10.0075C10.8881 10.7058 10.3008 11.2681 9.58707 11.6159C8.87336 11.9635 8.06892 12.079 7.28628 11.9459C6.5035 11.8128 5.78152 11.4379 5.22281 10.8737C4.66424 10.3095 4.29651 9.58436 4.17105 8.80044C4.0456 8.01646 4.16892 7.21292 4.52359 6.50258C4.87831 5.7922 5.44646 5.21029 6.14859 4.8395ZM8.52261 8.16958L8.18863 8.50454C8.03243 8.66073 7.77941 8.6607 7.6232 8.50454C7.46699 8.34833 7.46699 8.09532 7.6232 7.93911L7.96109 7.60024C7.94844 7.59944 7.93585 7.59634 7.923 7.59633C7.58942 7.59633 7.31851 7.86725 7.31851 8.20083C7.31872 8.53423 7.58955 8.80434 7.923 8.80434C8.2563 8.80417 8.52631 8.53412 8.52652 8.20083C8.52652 8.19042 8.52313 8.17985 8.52261 8.16958ZM9.32632 8.20083C9.32611 8.97595 8.69813 9.60397 7.923 9.60415C7.14773 9.60415 6.51892 8.97605 6.51871 8.20083C6.51871 7.42542 7.1476 6.79653 7.923 6.79653C8.16622 6.79659 8.39543 6.85758 8.59488 6.96645L10.4054 5.15688V3.97426C10.4055 3.73571 10.5004 3.50721 10.6691 3.33852L11.5871 2.41958L11.631 2.38149C11.8418 2.22044 12.1514 2.29655 12.2638 2.53676L12.2853 2.59048L12.5841 3.54262L13.5373 3.84243C13.8379 3.93703 13.9309 4.31667 13.7082 4.53969L12.7892 5.45864C12.6204 5.62742 12.3912 5.72231 12.1525 5.72231H10.9709L9.15836 7.53383C9.26558 7.73218 9.32632 7.95953 9.32632 8.20083ZM11.2052 4.92251H12.1525C12.179 4.92251 12.205 4.91196 12.2238 4.89321L12.6984 4.41762L12.1554 4.2477C12.0243 4.20656 11.9212 4.10345 11.88 3.97231L11.7091 3.42837L11.2345 3.90395C11.2159 3.92261 11.2053 3.94788 11.2052 3.97426V4.92251Z" fill="#EEEEEE" />
</svg>
