<svg width="16" height="16" viewBox="0 0 16 16" fill="none" xmlns="http://www.w3.org/2000/svg">
<path d="M6.67363 13.5166C6.86717 13.4104 7.11021 13.4813 7.2166 13.6748C7.29367 13.8148 7.40714 13.9313 7.54472 14.0127C7.68243 14.0941 7.83982 14.1377 7.9998 14.1377C8.1596 14.1376 8.31634 14.094 8.4539 14.0127C8.59147 13.9313 8.70495 13.8148 8.78203 13.6748C8.88841 13.4813 9.13146 13.4104 9.32499 13.5166C9.51852 13.623 9.5895 13.866 9.4832 14.0596C9.3371 14.3253 9.12214 14.5468 8.86113 14.7012C8.60024 14.8555 8.30289 14.9374 7.9998 14.9375C7.69655 14.9375 7.39851 14.8555 7.13749 14.7012C6.8765 14.5468 6.66151 14.3253 6.51542 14.0596C6.40914 13.866 6.48011 13.623 6.67363 13.5166ZM11.6004 6C11.6004 5.04522 11.2208 4.12923 10.5457 3.4541C9.87058 2.77903 8.95453 2.40039 7.9998 2.40039C7.04527 2.40044 6.12992 2.77926 5.45488 3.4541C4.77975 4.12923 4.40019 5.04522 4.40019 6C4.40019 8.62748 3.78098 10.2593 3.19413 11.2129C3.19295 11.215 3.1819 11.237 3.18339 11.2891C3.18492 11.3411 3.19842 11.4041 3.22538 11.4639C3.25267 11.5243 3.28574 11.566 3.31132 11.5879C3.31936 11.5948 3.32554 11.5977 3.3289 11.5996H12.6707C12.674 11.5978 12.6801 11.5948 12.6883 11.5879C12.7138 11.5661 12.7469 11.5242 12.7742 11.4639C12.8012 11.4041 12.8157 11.3411 12.8172 11.2891C12.8187 11.2357 12.8062 11.214 12.8055 11.2129C12.2186 10.2593 11.6004 8.62741 11.6004 6ZM12.407 6.45605C12.4733 8.67903 13.0178 10.0302 13.4871 10.793C13.6872 11.1181 13.6264 11.5198 13.5037 11.792C13.3839 12.0576 13.1093 12.4004 12.6785 12.4004H3.32109C2.89028 12.4004 2.61665 12.0576 2.49687 11.792C2.37415 11.5198 2.31238 11.1182 2.51249 10.793C2.98184 10.0302 3.52731 8.67921 3.59355 6.45605L3.60038 6C3.60038 4.83309 4.06337 3.71382 4.88847 2.88867C5.71358 2.06356 6.83292 1.59966 7.9998 1.59961C9.1667 1.59961 10.286 2.06357 11.1111 2.88867C11.9363 3.71383 12.4002 4.83305 12.4002 6L12.407 6.45605Z" fill="#EEEEEE" />
</svg>
