<svg width="16" height="16" viewBox="0 0 16 16" fill="none" xmlns="http://www.w3.org/2000/svg">
<path d="M13.5938 5.24585L12.5352 5.85522C12.3438 5.96514 12.0994 5.89893 11.9893 5.70776C11.8792 5.51623 11.9452 5.27097 12.1367 5.16089L13.1826 4.55933C13.1666 4.54869 13.1514 4.53677 13.1348 4.5271L8.46777 1.86108L8.4668 1.86011C8.32491 1.77819 8.16383 1.73511 8 1.73511C7.83617 1.73511 7.67509 1.77819 7.5332 1.86011L7.53223 1.86108L2.86523 4.5271C2.84832 4.5369 2.83261 4.54852 2.81641 4.55933L3.86328 5.16089C4.05482 5.27097 4.12082 5.51623 4.01074 5.70776C3.90056 5.89894 3.65622 5.96515 3.46484 5.85522L2.40527 5.24585C2.40248 5.27502 2.40042 5.30428 2.40039 5.33374V10.6667C2.40064 10.8303 2.44356 10.991 2.52539 11.1326C2.60685 11.2734 2.72361 11.3907 2.86426 11.4724H2.86523L7.53223 14.1394L7.5332 14.1404C7.55456 14.1527 7.57744 14.162 7.59961 14.1726V12.9998C7.59972 12.7789 7.77916 12.6003 8 12.6003C8.22084 12.6003 8.40028 12.7789 8.40039 12.9998V14.1726C8.42256 14.162 8.44544 14.1527 8.4668 14.1404L8.46777 14.1394L13.1348 11.4724C13.2757 11.3906 13.393 11.2737 13.4746 11.1326C13.5564 10.991 13.5994 10.8303 13.5996 10.6667V5.33374L13.5938 5.24585ZM10.3291 7.99976C10.3291 7.78872 10.3802 7.58055 10.4775 7.39331C10.5742 7.20748 10.7137 7.04739 10.8848 6.92651C10.9885 6.85218 11.0619 6.7417 11.0889 6.61694C11.1158 6.49214 11.0951 6.36131 11.0312 6.25073C10.9674 6.14026 10.8646 6.05739 10.7432 6.01831C10.6215 5.9793 10.4894 5.98699 10.373 6.03979L10.3721 6.03882C10.1817 6.12672 9.97318 6.16907 9.76367 6.15991C9.55284 6.15064 9.34686 6.09058 9.16406 5.98511C8.98129 5.87959 8.82639 5.73139 8.71289 5.55347C8.59943 5.37558 8.53036 5.17281 8.51172 4.96265V4.96167C8.49892 4.83547 8.44058 4.71797 8.34668 4.63257C8.25198 4.54646 8.12799 4.49878 8 4.49878C7.87221 4.49884 7.7489 4.54666 7.6543 4.63257C7.55967 4.71863 7.50045 4.83727 7.48828 4.9646C7.46925 5.17547 7.39853 5.37728 7.28613 5.55347C7.17258 5.7314 7.01779 5.87962 6.83496 5.98511C6.65212 6.09055 6.44622 6.15069 6.23535 6.15991C6.02575 6.16902 5.81735 6.12685 5.62695 6.03882C5.51087 5.98648 5.37906 5.97938 5.25781 6.01831C5.13642 6.05734 5.03358 6.14037 4.96973 6.25073C4.90589 6.36127 4.88521 6.49216 4.91211 6.61694C4.93901 6.74171 5.01154 6.85209 5.11523 6.92651C5.28642 7.04747 5.42672 7.2073 5.52344 7.39331C5.62079 7.58055 5.67088 7.78872 5.6709 7.99976C5.6709 8.21076 5.62074 8.41897 5.52344 8.6062C5.42662 8.7924 5.28568 8.952 5.11426 9.073C5.0105 9.14739 4.93906 9.25875 4.91211 9.38354C4.88525 9.50819 4.90508 9.63832 4.96875 9.74878C5.03265 9.85939 5.13617 9.94219 5.25781 9.9812C5.37801 10.0197 5.50778 10.0128 5.62305 9.96167C5.81448 9.87239 6.0253 9.83044 6.23633 9.8396C6.44728 9.8488 6.65303 9.9089 6.83594 10.0144C7.01882 10.1199 7.17353 10.2681 7.28711 10.446C7.40022 10.6234 7.46936 10.8255 7.48828 11.0349L7.50586 11.1287C7.53207 11.2197 7.58332 11.3024 7.6543 11.3669C7.74892 11.4529 7.87215 11.5007 8 11.5007C8.12801 11.5007 8.25198 11.4531 8.34668 11.3669C8.44058 11.2815 8.49899 11.1641 8.51172 11.0378C8.53032 10.8275 8.59933 10.6241 8.71289 10.446C8.82641 10.2681 8.98127 10.1199 9.16406 10.0144C9.34685 9.90894 9.55285 9.84985 9.76367 9.84058C9.97463 9.83135 10.1855 9.87251 10.377 9.96167H10.376C10.4915 10.0132 10.6226 10.0199 10.7432 9.9812C10.8646 9.94211 10.9674 9.85922 11.0312 9.74878C11.0949 9.63836 11.1157 9.50815 11.0889 9.38354C11.0619 9.25868 10.9886 9.14837 10.8848 9.07397V9.073C10.7137 8.95209 10.5742 8.79208 10.4775 8.6062C10.3802 8.41891 10.3291 8.21085 10.3291 7.99976ZM8.77246 7.99976C8.77228 7.57336 8.42644 7.22729 8 7.22729C7.57359 7.22733 7.22772 7.57338 7.22754 7.99976C7.22754 8.42629 7.57348 8.77218 8 8.77222C8.42655 8.77222 8.77246 8.4263 8.77246 7.99976ZM9.57227 7.99976C9.57227 8.86813 8.86838 9.57202 8 9.57202C7.13165 9.57199 6.42773 8.86811 6.42773 7.99976C6.42792 7.13156 7.13176 6.42752 8 6.42749C8.86826 6.42749 9.57208 7.13154 9.57227 7.99976ZM11.1289 7.99976C11.1289 8.08227 11.1485 8.16383 11.1865 8.23706C11.2246 8.31026 11.2802 8.37323 11.3477 8.42065L11.3506 8.42358C11.6159 8.61366 11.8012 8.89554 11.8701 9.2146C11.939 9.53358 11.8868 9.8666 11.7236 10.1492C11.5604 10.4318 11.2981 10.6442 10.9873 10.7439C10.6765 10.8436 10.3392 10.8232 10.042 10.6882L10.0391 10.6873C9.96415 10.6524 9.88139 10.6358 9.79883 10.6394C9.71635 10.643 9.63597 10.6665 9.56445 10.7078C9.49287 10.7491 9.43214 10.807 9.3877 10.8767C9.34327 10.9464 9.31587 11.0259 9.30859 11.1082V11.1111C9.27755 11.4365 9.1266 11.7388 8.88477 11.9587C8.64279 12.1788 8.32707 12.3005 8 12.3005C7.67311 12.3005 7.35809 12.1786 7.11621 11.9587C6.87434 11.7388 6.72244 11.4365 6.69141 11.1111V11.1082C6.68414 11.0258 6.65676 10.9464 6.6123 10.8767C6.56794 10.8072 6.50793 10.749 6.43652 10.7078C6.36491 10.6665 6.28376 10.643 6.20117 10.6394C6.11869 10.6359 6.03674 10.6524 5.96191 10.6873L5.95801 10.6882C5.6608 10.8232 5.32351 10.8436 5.0127 10.7439C4.70198 10.6442 4.43961 10.4317 4.27637 10.1492C4.11318 9.86662 4.06105 9.53355 4.12988 9.2146C4.19878 8.89554 4.38406 8.61366 4.64941 8.42358L4.65234 8.42065C4.71988 8.37322 4.7754 8.31029 4.81348 8.23706C4.85151 8.16382 4.87109 8.08229 4.87109 7.99976C4.87107 7.91719 4.85156 7.83571 4.81348 7.76245C4.77538 7.68918 4.71994 7.6263 4.65234 7.57886L4.64844 7.57593C4.38379 7.38583 4.19863 7.1044 4.12988 6.78589C4.06116 6.46705 4.11423 6.13377 4.27734 5.85132C4.44041 5.56897 4.70232 5.35744 5.0127 5.25757C5.28439 5.17021 5.57602 5.17398 5.84375 5.26636L5.95703 5.31128L5.96094 5.31323C6.03583 5.34811 6.11864 5.36372 6.20117 5.36011C6.28359 5.35644 6.36409 5.33298 6.43555 5.29175C6.50702 5.25046 6.56791 5.19239 6.6123 5.1228C6.65736 5.05205 6.68426 4.97216 6.69141 4.89136V4.8894C6.72236 4.5638 6.87424 4.26083 7.11621 4.04077C7.35807 3.82097 7.67318 3.69904 8 3.69897C8.32703 3.69897 8.64281 3.82077 8.88477 4.04077C9.09652 4.23335 9.23902 4.48925 9.29199 4.76831L9.30859 4.8894V4.89136C9.31587 4.97358 9.34335 5.05319 9.3877 5.1228C9.43213 5.19246 9.49289 5.25045 9.56445 5.29175C9.63599 5.33302 9.71632 5.35647 9.79883 5.36011C9.88139 5.36372 9.96415 5.34813 10.0391 5.31323L10.042 5.31128C10.3392 5.17634 10.6765 5.15691 10.9873 5.25659C11.2979 5.35631 11.5604 5.56787 11.7236 5.85034C11.8869 6.13297 11.939 6.46683 11.8701 6.78589C11.8011 7.10473 11.6158 7.38693 11.3506 7.5769L11.3477 7.57886C11.2801 7.6263 11.2246 7.68921 11.1865 7.76245C11.1484 7.8357 11.1289 7.91721 11.1289 7.99976ZM14.4004 10.6667L14.3848 10.8933C14.355 11.1179 14.2811 11.3355 14.167 11.533C14.0149 11.796 13.7963 12.0148 13.5332 12.1667L13.5322 12.1677L8.86523 14.8337L8.86426 14.8328C8.60993 14.9792 8.32341 15.0571 8.03027 15.0623C8.0202 15.063 8.01026 15.0662 8 15.0662C7.98941 15.0662 7.97913 15.0631 7.96875 15.0623C7.67567 15.057 7.38899 14.9793 7.13477 14.8328V14.8337L2.46777 12.1677L2.4668 12.1667C2.20366 12.0148 1.98512 11.796 1.83301 11.533C1.71888 11.3355 1.64504 11.1179 1.61523 10.8933L1.59961 10.6667V5.33276C1.59995 5.02888 1.68094 4.73063 1.83301 4.46753C1.98512 4.20437 2.20356 3.98572 2.4668 3.83374L2.46777 3.83276L7.13477 1.16577V1.16675C7.39798 1.01505 7.69618 0.934326 8 0.934326C8.30354 0.934326 8.60122 1.01532 8.86426 1.16675L8.86523 1.16577L13.5322 3.83276L13.5332 3.83374C13.7964 3.98572 14.0149 4.20437 14.167 4.46753C14.3191 4.73063 14.4 5.02888 14.4004 5.33276V10.6667Z" fill="#EEEEEE" />
</svg>
