<svg width="16" height="16" viewBox="0 0 16 16" fill="none" xmlns="http://www.w3.org/2000/svg">
<path d="M12.3997 4.40027C12.3997 3.95847 12.0416 3.60051 11.5999 3.60046H4.39966C3.95788 3.60052 3.59985 3.95848 3.59985 4.40027V11.6005C3.60006 12.0421 3.95801 12.4002 4.39966 12.4003H11.5999C12.0415 12.4002 12.3994 12.0421 12.3997 11.6005V4.40027ZM9.39966 6.79968C9.39951 6.68949 9.31061 6.59972 9.20044 6.59949H6.80005C6.68968 6.59949 6.6 6.68935 6.59985 6.79968V9.20007C6.59992 9.31047 6.68963 9.40027 6.80005 9.40027H9.20044C9.31066 9.40004 9.39959 9.31033 9.39966 9.20007V6.79968ZM10.2004 9.20007C10.2004 9.75216 9.75249 10.1998 9.20044 10.2001H6.80005C6.2478 10.2001 5.80011 9.7523 5.80005 9.20007V6.79968C5.80019 6.24752 6.24785 5.79968 6.80005 5.79968H9.20044C9.75244 5.79991 10.2003 6.24766 10.2004 6.79968V9.20007ZM13.1995 5.79968H14.0002C14.2212 5.79969 14.4006 5.97916 14.4006 6.20007C14.4006 6.42093 14.2211 6.59948 14.0002 6.59949H13.1995V9.40027H14.0002C14.221 9.40028 14.4004 9.57894 14.4006 9.79968C14.4006 10.0206 14.2212 10.2001 14.0002 10.2001H13.1995V11.6005C13.1993 12.4839 12.4833 13.2 11.5999 13.2001H10.2004V13.9999C10.2004 14.2208 10.021 14.4003 9.80005 14.4003C9.57913 14.4003 9.39966 14.2208 9.39966 13.9999V13.2001H6.59985V13.9999C6.59985 14.2206 6.42116 14.4 6.20044 14.4003C5.97953 14.4003 5.80005 14.2208 5.80005 13.9999V13.2001H4.39966C3.51618 13.2 2.80026 12.4839 2.80005 11.6005V10.2001H2.00024C1.77933 10.2001 1.59985 10.0206 1.59985 9.79968C1.60005 9.57894 1.77945 9.40027 2.00024 9.40027H2.80005V6.59949H2.00024C1.77937 6.59949 1.59992 6.42093 1.59985 6.20007C1.59985 5.97916 1.77933 5.79968 2.00024 5.79968H2.80005V4.40027C2.80005 3.51665 3.51605 2.79974 4.39966 2.79968H5.80005V1.99988C5.80005 1.77896 5.97953 1.59949 6.20044 1.59949C6.42116 1.59972 6.59985 1.77911 6.59985 1.99988V2.79968H9.39966V1.99988C9.39966 1.77896 9.57913 1.59949 9.80005 1.59949C10.021 1.59949 10.2004 1.77896 10.2004 1.99988V2.79968H11.5999C12.4835 2.79973 13.1995 3.51664 13.1995 4.40027V5.79968Z" fill="#EEEEEE" />
</svg>
