<svg width="16" height="16" viewBox="0 0 16 16" fill="none" xmlns="http://www.w3.org/2000/svg">
<path d="M3.46775 3.46762C3.62388 3.31171 3.87702 3.31176 4.03318 3.46762C4.18939 3.62383 4.18939 3.87782 4.03318 4.03403C1.85559 6.21192 1.85541 9.78887 4.03318 11.9666C4.18937 12.1229 4.18938 12.3759 4.03318 12.5321C3.87697 12.6882 3.62393 12.6882 3.46775 12.5321C0.977466 10.0418 0.977466 5.95791 3.46775 3.46762ZM11.9668 3.46762C12.1229 3.31176 12.3761 3.31172 12.5322 3.46762C15.0225 5.95791 15.0225 9.98222 12.5322 12.4725C12.3761 12.6285 12.1229 12.6284 11.9668 12.4725C11.8106 12.3163 11.8106 12.0623 11.9668 11.9061C14.1442 9.7283 14.1443 6.2118 11.9668 4.03403C11.8106 3.87782 11.8106 3.62383 11.9668 3.46762ZM10.2304 5.20297C10.3867 5.04686 10.6407 5.04682 10.7969 5.20297C12.3328 6.73892 12.3242 9.26274 10.8027 10.8504C10.6499 11.0099 10.3968 11.0148 10.2373 10.8622C10.0778 10.7094 10.0719 10.4562 10.2246 10.2967C11.4561 9.01171 11.4475 6.98644 10.2304 5.76938C10.0743 5.61317 10.0742 5.35917 10.2304 5.20297ZM5.19724 5.14926C5.35001 4.98995 5.60319 4.98501 5.76267 5.13754C5.92208 5.29031 5.92796 5.54346 5.77537 5.70297C4.54391 6.98797 4.55249 9.01326 5.76951 10.2303C5.92571 10.3865 5.92571 10.6405 5.76951 10.7967C5.6133 10.9529 5.35931 10.9529 5.2031 10.7967C3.66719 9.26077 3.67571 6.73694 5.19724 5.14926ZM8.79685 7.99985C8.79675 7.55986 8.43995 7.2031 7.99998 7.20297C7.55989 7.20297 7.2032 7.55978 7.2031 7.99985C7.2031 8.44 7.55983 8.79672 7.99998 8.79672C8.44001 8.79659 8.79685 8.43992 8.79685 7.99985ZM9.59666 7.99985C9.59666 8.88174 8.88184 9.5964 7.99998 9.59653C7.118 9.59653 6.40232 8.88183 6.40232 7.99985C6.40242 7.11796 7.11806 6.40317 7.99998 6.40317C8.88178 6.4033 9.59656 7.11804 9.59666 7.99985Z" fill="#EEEEEE" />
</svg>
