<svg width="16" height="16" viewBox="0 0 16 16" fill="none" xmlns="http://www.w3.org/2000/svg">
<path d="M2.34979 14V2.00004C2.34986 1.77919 2.52931 1.60063 2.75018 1.60063C2.97106 1.60063 3.15051 1.77919 3.15057 2.00004V14C3.15057 14.221 2.97109 14.4004 2.75018 14.4004C2.52927 14.4004 2.3498 14.221 2.34979 14ZM5.57635 1.63969C5.71494 1.57308 5.88012 1.59149 6.00018 1.68754L13.4992 7.68754C13.5941 7.76345 13.6496 7.87853 13.6496 8.00004C13.6496 8.12153 13.5941 8.23665 13.4992 8.31254L6.00018 14.3125C5.88012 14.4086 5.71494 14.427 5.57635 14.3604C5.43793 14.2938 5.34984 14.1537 5.34979 14V2.00004C5.34979 1.84638 5.43792 1.70635 5.57635 1.63969ZM6.1496 13.168L12.6096 8.00004L6.1496 2.83208V13.168Z" fill="#EEEEEE" />
</svg>
