<svg width="16" height="16" viewBox="0 0 16 16" fill="none" xmlns="http://www.w3.org/2000/svg">
<path d="M3.9938 10.259C4.39326 10.2713 4.77664 10.4121 5.08755 10.6584L5.21645 10.7707L5.22134 10.7756C5.90688 11.4527 5.90237 12.5484 5.30532 13.256L5.3063 13.257C5.04524 13.5678 4.67582 13.8061 4.30044 13.9894C3.92052 14.175 3.50609 14.318 3.12856 14.426C2.74981 14.5343 2.39937 14.6099 2.14419 14.6584C2.01658 14.6826 1.91184 14.7005 1.83852 14.7121C1.80198 14.7179 1.77264 14.7219 1.75259 14.7248C1.7426 14.7262 1.73465 14.7279 1.72915 14.7287C1.7264 14.7291 1.72389 14.7295 1.72231 14.7297H1.71938C1.59593 14.7461 1.47152 14.7045 1.38345 14.6164C1.2954 14.5283 1.25369 14.4039 1.27017 14.2804V14.2775C1.27038 14.2759 1.27076 14.2734 1.27114 14.2707C1.27191 14.2652 1.27361 14.2571 1.27505 14.2472C1.27796 14.2273 1.28199 14.1986 1.28774 14.1623C1.29937 14.0889 1.31717 13.9835 1.34145 13.8556C1.38991 13.6005 1.46556 13.25 1.57388 12.8713C1.68187 12.4938 1.82484 12.0793 2.0104 11.6994C2.19377 11.324 2.43205 10.9546 2.74282 10.6935C3.09202 10.3995 3.53751 10.2449 3.9938 10.259ZM3.96938 11.0588C3.74224 11.0517 3.51969 11.1183 3.33462 11.2472L3.25747 11.3058C3.06831 11.4647 2.88951 11.7226 2.72915 12.051C2.57106 12.3746 2.44274 12.7413 2.34243 13.092C2.26453 13.3644 2.20681 13.6227 2.16274 13.8361C2.37631 13.792 2.63515 13.7354 2.90786 13.6574C3.25851 13.5571 3.62521 13.4288 3.94888 13.2707C4.27718 13.1103 4.5351 12.9315 4.69399 12.7424L4.69497 12.7414C5.0415 12.3309 5.02591 11.7128 4.66372 11.3498L4.59048 11.2853C4.41389 11.1455 4.1962 11.0658 3.96938 11.0588ZM7.60024 13.3332V10.1652L5.83462 8.39959H2.66665C2.54807 8.39958 2.436 8.34706 2.36001 8.25603C2.28407 8.16507 2.25202 8.04548 2.2731 7.92888L2.27407 7.92595C2.27433 7.92455 2.2746 7.92245 2.27505 7.92009C2.27593 7.91542 2.27637 7.90878 2.27798 7.90056C2.28126 7.88377 2.28624 7.85957 2.29263 7.82927C2.30539 7.76877 2.32526 7.68299 2.35122 7.5783C2.40307 7.36925 2.48214 7.08207 2.59438 6.77263C2.80917 6.18051 3.17868 5.40206 3.77798 5.00115C4.12387 4.77058 4.54035 4.66813 4.93911 4.63103C5.34138 4.59364 5.75612 4.61895 6.1227 4.66619C6.4909 4.71364 6.8219 4.78516 7.0602 4.84392C7.10181 4.85418 7.14052 4.8648 7.17642 4.8742C7.97275 3.70044 9.03726 2.73115 10.2829 2.04607C11.6262 1.30722 13.1365 0.924257 14.6696 0.933767C14.8893 0.935366 15.067 1.11346 15.067 1.33318C15.067 3.18259 14.5421 6.41449 11.1276 8.8322C11.1363 8.86565 11.1465 8.90136 11.1559 8.93963C11.2147 9.17792 11.2862 9.50895 11.3336 9.87713C11.3809 10.2437 11.4062 10.6584 11.3688 11.0607C11.3317 11.4595 11.2302 11.8759 10.9997 12.2219L10.9987 12.2228C10.5977 12.8218 9.81916 13.1907 9.2272 13.4054C8.91798 13.5176 8.6315 13.5977 8.42251 13.6496C8.31768 13.6756 8.23111 13.6944 8.17056 13.7072C8.14029 13.7136 8.11605 13.7186 8.09927 13.7219C8.09102 13.7235 8.08439 13.7249 8.07974 13.7258C8.07745 13.7262 8.07525 13.7265 8.07388 13.7267H8.07192C7.9555 13.7477 7.83469 13.7165 7.7438 13.6408C7.65276 13.5648 7.60024 13.4518 7.60024 13.3332ZM10.4127 9.28631C9.76671 9.66325 9.09444 9.99305 8.40005 10.2717V12.8254C8.56233 12.7811 8.75441 12.7262 8.95474 12.6535C9.53422 12.4433 10.0889 12.1449 10.3346 11.7775C10.4636 11.5836 10.5415 11.3134 10.5719 10.9865C10.602 10.6626 10.5824 10.3113 10.5397 9.97966C10.5065 9.72171 10.4571 9.48269 10.4127 9.28631ZM14.2555 1.74138C13.0002 1.79631 11.7718 2.13895 10.6676 2.74627C9.44407 3.41928 8.41305 4.39439 7.67251 5.5783L7.67056 5.5822C7.19984 6.31741 6.79701 7.09413 6.46841 7.90252L8.09634 9.53045C8.91644 9.20179 9.70574 8.80068 10.4528 8.3283C13.5275 6.26222 14.1757 3.51353 14.2555 1.74138ZM5.01333 5.42791C4.76797 5.45072 4.55461 5.5003 4.38149 5.5783L4.22231 5.66619C3.85505 5.91202 3.55749 6.46665 3.34731 7.04607C3.27471 7.24625 3.21875 7.4376 3.17446 7.59978H5.72915C6.01147 6.90553 6.34497 6.23345 6.7272 5.58904C6.52838 5.5438 6.28393 5.49413 6.02017 5.46013C5.68855 5.41742 5.33714 5.39781 5.01333 5.42791Z" fill="#EEEEEE" />
</svg>
