<svg width="16" height="16" viewBox="0 0 16 16" fill="none" xmlns="http://www.w3.org/2000/svg">
<path d="M8.79393 1.71188C9.00085 1.56124 9.2754 1.56739 9.47851 1.70114L9.57323 1.77829L11.6142 3.8193L12.5996 2.83493C12.7558 2.679 13.0089 2.67881 13.165 2.83493C13.3211 2.99105 13.3209 3.24414 13.165 3.40036L12.1797 4.38473L14.2217 6.42672C14.4561 6.66159 14.4687 7.06018 14.2031 7.30075C13.4316 7.99956 12.5227 8.33843 11.5303 8.28122L10.5361 9.27438L12.2383 10.9765C12.4768 11.2153 12.4769 11.6021 12.2383 11.8408L9.85839 14.2207C9.61963 14.4594 9.23191 14.4594 8.99315 14.2207L7.29198 12.5185L7.01171 12.7998C6.64428 13.1672 6.21334 13.283 5.77929 13.1787C5.38238 13.0832 5.02759 12.8146 4.73339 12.5205L3.47948 11.2666C3.18532 10.9724 2.91681 10.6176 2.82128 10.2207C2.71692 9.78658 2.83274 9.3557 3.20018 8.98825L3.48046 8.707L1.77929 7.0068C1.54053 6.76805 1.54053 6.38032 1.77929 6.14157L4.15917 3.76168L4.25487 3.68356C4.45831 3.5491 4.72424 3.54921 4.92772 3.68356L5.02343 3.76168L6.7246 5.46286L7.72362 4.46286C7.70178 3.51352 8.02624 2.55744 8.69726 1.80075L8.79393 1.71188ZM7.85741 11.9531L9.42577 13.5215L11.5391 11.4082L9.97069 9.83981L7.85741 11.9531ZM3.76561 9.55368C3.58287 9.73643 3.56321 9.887 3.59862 10.0341C3.64303 10.2184 3.78996 10.4452 4.04589 10.7011L5.29882 11.9541C5.5548 12.21 5.78157 12.357 5.96581 12.4013C6.11295 12.4367 6.26353 12.4171 6.44628 12.2343L9.68847 8.99215L10.5723 8.10641C9.95499 7.92299 9.33549 7.60108 8.86718 7.13278C8.38094 6.64654 8.04937 6.06357 7.87304 5.44625L3.76561 9.55368ZM2.47753 6.57321L4.04589 8.14157L6.15917 6.02829L4.59081 4.45993L2.47753 6.57321ZM9.15917 2.49606C8.68811 3.10782 8.47885 3.85711 8.53124 4.59372C8.58236 5.3122 8.88209 6.01683 9.43261 6.56735C9.94335 7.07807 10.7273 7.39509 11.4209 7.47067C12.1827 7.55363 12.8818 7.34516 13.5058 6.84274L9.15917 2.49606Z" fill="#EEEEEE" />
</svg>
