<svg width="16" height="16" viewBox="0 0 16 16" fill="none" xmlns="http://www.w3.org/2000/svg">
<path d="M12.0666 7.13306C12.0664 4.4086 9.85749 2.20044 7.133 2.20044C4.40865 2.20062 2.20055 4.40871 2.20038 7.13306C2.20038 9.85755 4.40854 12.0665 7.133 12.0667C9.8576 12.0667 12.0666 9.85766 12.0666 7.13306ZM12.8664 7.13306C12.8664 8.57234 12.3351 9.88702 11.4592 10.8938L14.0832 13.5168C14.2394 13.673 14.2394 13.927 14.0832 14.0833C13.927 14.2395 13.673 14.2395 13.5168 14.0833L10.8937 11.4592C9.88696 12.3352 8.57228 12.8665 7.133 12.8665C3.96671 12.8663 1.3996 10.2994 1.3996 7.13306C1.39977 3.96688 3.96682 1.39983 7.133 1.39966C10.2993 1.39966 12.8662 3.96677 12.8664 7.13306Z" fill="#EEEEEE" />
</svg>
