<svg width="16" height="16" viewBox="0 0 16 16" fill="none" xmlns="http://www.w3.org/2000/svg">
<path d="M12.1482 13.2659C12.1479 13.4866 11.9686 13.6653 11.7478 13.6653C11.527 13.6653 11.3477 13.4866 11.3474 13.2659L11.3474 8.89575C11.3474 8.67484 11.5269 8.49536 11.7478 8.49536C11.9687 8.49536 12.1482 8.67484 12.1482 8.89575L12.1482 13.2659Z" fill="#EEEEEE" />
<path d="M12.1515 4.08521C12.1515 4.30612 11.972 4.4856 11.7511 4.4856C11.5302 4.4856 11.3507 4.30612 11.3507 4.08521L11.3507 2.39868C11.3507 2.17777 11.5302 1.99829 11.7511 1.99829C11.972 1.99829 12.1515 2.17777 12.1515 2.39868L12.1515 4.08521Z" fill="#EEEEEE" />
<path d="M11.751 8.36743C12.7721 8.36743 13.5995 7.53986 13.5996 6.5188C13.5996 5.49768 12.7721 4.67017 11.751 4.67017C10.7299 4.67023 9.90234 5.49772 9.90234 6.5188C9.90241 7.53982 10.73 8.36737 11.751 8.36743ZM11.751 9.16724C10.2881 9.16717 9.1026 7.98165 9.10254 6.5188C9.10254 5.05589 10.2881 3.86945 11.751 3.86938C13.2139 3.86938 14.4004 5.05585 14.4004 6.5188C14.4003 7.98169 13.2139 9.16724 11.751 9.16724Z" fill="#EEEEEE" />
<path d="M3.84851 2.39783C3.84877 2.17713 4.02815 1.99841 4.2489 1.99841C4.46966 1.99841 4.64904 2.17713 4.64929 2.39783L4.64929 6.76794C4.64929 6.98886 4.46982 7.16834 4.2489 7.16834C4.02799 7.16833 3.84851 6.98886 3.84851 6.76794L3.84851 2.39783Z" fill="#EEEEEE" />
<path d="M3.84851 11.5789C3.84851 11.3579 4.02799 11.1785 4.2489 11.1785C4.46982 11.1785 4.64929 11.3579 4.64929 11.5789L4.64929 13.2654C4.64929 13.4863 4.46982 13.6658 4.2489 13.6658C4.02799 13.6658 3.84851 13.4863 3.84851 13.2654L3.84851 11.5789Z" fill="#EEEEEE" />
<path d="M4.24902 7.29663C3.22794 7.29663 2.40046 8.1242 2.40039 9.14526C2.40039 10.1664 3.2279 10.9939 4.24902 10.9939C5.27009 10.9938 6.09766 10.1663 6.09766 9.14526C6.09759 8.12424 5.27005 7.2967 4.24902 7.29663ZM4.24902 6.49683C5.71188 6.49689 6.8974 7.68241 6.89746 9.14526C6.89746 10.6082 5.71192 11.7946 4.24902 11.7947C2.78608 11.7947 1.59961 10.6082 1.59961 9.14526C1.59968 7.68237 2.78612 6.49683 4.24902 6.49683Z" fill="#EEEEEE" />
</svg>
