<svg width="16" height="16" viewBox="0 0 16 16" fill="none" xmlns="http://www.w3.org/2000/svg">
<path d="M11.5977 7.60022C11.6865 7.60024 11.7742 7.61777 11.8555 7.65198L11.9346 7.69202L12.0078 7.74182C12.0542 7.77819 12.0956 7.82053 12.1309 7.8678L12.1787 7.94202L14.5332 12.1803C14.5894 12.2814 14.6185 12.3956 14.6172 12.5114C14.6158 12.627 14.584 12.7407 14.5254 12.8405C14.4667 12.9402 14.3827 13.0232 14.2822 13.0807C14.1818 13.1381 14.0679 13.1685 13.9521 13.1686H3.72656C3.61083 13.1685 3.49695 13.1382 3.39648 13.0807C3.29601 13.0232 3.21201 12.9402 3.15332 12.8405C3.09471 12.7407 3.06292 12.6271 3.06152 12.5114C3.06017 12.3956 3.08926 12.2814 3.14551 12.1803L5.5 7.94202L5.54785 7.8678C5.60067 7.79691 5.66743 7.73713 5.74414 7.69202L5.82324 7.65198C5.90455 7.61777 5.99226 7.60024 6.08105 7.60022H11.5977ZM11.2793 12.3688H13.7227L13.2842 11.5787H11.1035L11.2793 12.3688ZM7.21875 12.3688H10.46L10.2852 11.5787H7.39355L7.21875 12.3688ZM3.95605 12.3688H6.39941L6.5752 11.5787H4.39453L3.95605 12.3688ZM10.9258 10.7789H12.8398L12.4014 9.98987H10.75L10.9258 10.7789ZM7.57129 10.7789H10.1074L9.93164 9.98987H7.74707L7.57129 10.7789ZM4.83887 10.7789H6.75293L6.92871 9.98987H5.27734L4.83887 10.7789ZM5.71582 4.65784C6.39406 4.4006 7.13444 4.35585 7.83887 4.52893C8.54338 4.7021 9.17936 5.08515 9.66113 5.62756C9.80758 5.79274 9.79203 6.04539 9.62695 6.19202C9.46178 6.33856 9.20916 6.32392 9.0625 6.15881C8.68844 5.73767 8.19543 5.43976 7.64844 5.3053C7.10152 5.17087 6.52661 5.20623 6 5.40588C5.4733 5.60564 5.0195 5.96104 4.69922 6.42444C4.37902 6.88779 4.20675 7.43738 4.20605 8.00061C4.20577 8.3086 4.25802 8.61441 4.36035 8.90491C4.43376 9.11327 4.32457 9.34224 4.11621 9.41565C3.90786 9.48904 3.67887 9.37888 3.60547 9.17053C3.50619 8.88863 3.444 8.59547 3.41895 8.29846L3.40625 7.99963C3.40715 7.27419 3.62857 6.56615 4.04102 5.96936C4.45348 5.37258 5.03753 4.91511 5.71582 4.65784ZM10.5723 9.18909H11.9561L11.5176 8.40002H10.3975L10.5723 9.18909ZM7.9248 9.18909H9.75391L9.57812 8.40002H8.10059L7.9248 9.18909ZM5.72266 9.18909H7.10645L7.28125 8.40002H6.16113L5.72266 9.18909ZM2.74707 7.60022C2.96777 7.60048 3.14648 7.77985 3.14648 8.00061C3.14629 8.2212 2.96764 8.39977 2.74707 8.40002H2.2168C1.996 8.40002 1.8166 8.22136 1.81641 8.00061C1.81641 7.7797 1.99588 7.60022 2.2168 7.60022H2.74707ZM2.99316 4.0094C3.14935 3.85368 3.40251 3.85351 3.55859 4.0094L4.08789 4.53967C4.2441 4.69588 4.2441 4.94889 4.08789 5.1051C3.93168 5.26125 3.67865 5.26129 3.52246 5.1051L2.99316 4.57581C2.83695 4.4196 2.83695 4.16561 2.99316 4.0094ZM6.58496 3.76233V3.23206C6.58496 3.01114 6.76444 2.83167 6.98535 2.83167C7.2061 2.83186 7.38477 3.01126 7.38477 3.23206V3.76233C7.38451 3.9829 7.20594 4.16155 6.98535 4.16174C6.7646 4.16174 6.58522 3.98303 6.58496 3.76233Z" fill="#EEEEEE" />
</svg>
