<svg width="16" height="16" viewBox="0 0 16 16" fill="none" xmlns="http://www.w3.org/2000/svg">
<path d="M7.60013 13.9994V12.8002C7.60013 12.5793 7.77962 12.3998 8.00052 12.3998C8.22143 12.3998 8.40091 12.5793 8.40091 12.8002V13.9994C8.40091 14.2203 8.22143 14.3998 8.00052 14.3998C7.77962 14.3998 7.60013 14.2203 7.60013 13.9994ZM4.32181 11.1127C4.47799 10.9565 4.73201 10.9566 4.88821 11.1127C5.04441 11.2689 5.04439 11.5229 4.88821 11.6791L4.04153 12.5248C3.88531 12.6808 3.63225 12.6809 3.4761 12.5248C3.32004 12.3686 3.32011 12.1155 3.4761 11.9594L4.32181 11.1127ZM11.1138 11.1127C11.2699 10.9569 11.5231 10.9569 11.6792 11.1127L12.5249 11.9594C12.6811 12.1156 12.6811 12.3686 12.5249 12.5248C12.3687 12.6808 12.1157 12.6809 11.9595 12.5248L11.1138 11.6791C10.9576 11.5229 10.9576 11.2689 11.1138 11.1127ZM10.0005 8.00037C10.0005 6.89594 9.10491 6.00051 8.00052 6.00037C6.896 6.00037 6.00052 6.89585 6.00052 8.00037C6.00072 9.10472 6.89612 10.0004 8.00052 10.0004C9.10479 10.0002 10.0003 9.10462 10.0005 8.00037ZM3.20071 7.59998C3.42152 7.60011 3.60013 7.77953 3.60013 8.00037C3.6 8.22109 3.42143 8.39965 3.20071 8.39978H2.00052C1.77969 8.39978 1.60026 8.22117 1.60013 8.00037C1.60013 7.77945 1.7796 7.59998 2.00052 7.59998H3.20071ZM13.9995 7.59998C14.2205 7.59998 14.3999 7.77945 14.3999 8.00037C14.3998 8.22117 14.2204 8.39978 13.9995 8.39978H12.8003C12.5795 8.39978 12.4001 8.22117 12.3999 8.00037C12.3999 7.77945 12.5794 7.59998 12.8003 7.59998H13.9995ZM3.4761 3.47498C3.6322 3.319 3.88533 3.31918 4.04153 3.47498L4.88821 4.32166C5.04406 4.47786 5.04421 4.73098 4.88821 4.88708C4.732 5.04329 4.47802 5.04329 4.32181 4.88708L3.4761 4.04138C3.3199 3.88517 3.3199 3.63119 3.4761 3.47498ZM11.9595 3.47498C12.1156 3.31901 12.3687 3.31917 12.5249 3.47498C12.6811 3.63119 12.6811 3.88517 12.5249 4.04138L11.6792 4.88708C11.5231 5.04315 11.27 5.04313 11.1138 4.88708C10.9576 4.73091 10.9577 4.47787 11.1138 4.32166L11.9595 3.47498ZM7.60013 3.20056V2.00037C7.60013 1.77946 7.77962 1.59999 8.00052 1.59998C8.22143 1.59998 8.40091 1.77945 8.40091 2.00037V3.20056C8.40078 3.42136 8.22135 3.59998 8.00052 3.59998C7.7797 3.59996 7.60026 3.42135 7.60013 3.20056ZM10.8003 8.00037C10.8001 9.54645 9.54662 10.8 8.00052 10.8002C6.4543 10.8002 5.20091 9.54654 5.20071 8.00037C5.20071 6.45402 6.45417 5.20056 8.00052 5.20056C9.54674 5.20071 10.8003 6.45411 10.8003 8.00037Z" fill="#EEEEEE" />
</svg>
