<svg width="16" height="16" viewBox="0 0 16 16" fill="none" xmlns="http://www.w3.org/2000/svg">
<path d="M8.80001 3.20154C8.80001 2.98943 8.71561 2.78511 8.56563 2.63513C8.41568 2.48535 8.21216 2.40173 8.0002 2.40173C7.78823 2.40176 7.58471 2.48531 7.43477 2.63513C7.28479 2.78512 7.2004 2.98943 7.2004 3.20154V9.5238C7.20039 9.66671 7.12396 9.79903 7.0002 9.87048C6.61923 10.0905 6.32094 10.4298 6.15254 10.8363C5.9841 11.243 5.95464 11.6943 6.06856 12.1195C6.18249 12.5446 6.43422 12.9199 6.7834 13.1879C7.13257 13.4558 7.5601 13.6009 8.0002 13.601C8.44036 13.601 8.86877 13.4558 9.21797 13.1879C9.56693 12.92 9.81795 12.5445 9.93184 12.1195C10.0458 11.6943 10.0163 11.243 9.84786 10.8363C9.67943 10.4298 9.38121 10.0905 9.0002 9.87048C8.87644 9.79903 8.80001 9.66671 8.80001 9.5238V3.20154ZM9.59981 9.3031C10.0382 9.60812 10.3815 10.0342 10.5871 10.5306C10.8229 11.0999 10.8638 11.7314 10.7043 12.3265C10.5448 12.9217 10.1932 13.4475 9.7043 13.8226C9.21539 14.1978 8.61645 14.4017 8.0002 14.4017C7.38397 14.4017 6.78499 14.1978 6.2961 13.8226C5.80725 13.4475 5.45561 12.9217 5.2961 12.3265C5.1366 11.7313 5.17843 11.1 5.41426 10.5306C5.6198 10.0344 5.9625 9.60907 6.40059 9.30408V3.20154C6.40059 2.77726 6.56933 2.36971 6.86934 2.0697C7.16931 1.76985 7.57606 1.60098 8.0002 1.60095C8.42433 1.60095 8.83108 1.76989 9.13106 2.0697C9.43107 2.36971 9.59981 2.77726 9.59981 3.20154V9.3031Z" fill="#EEEEEE" />
</svg>
