<svg width="16" height="16" viewBox="0 0 16 16" fill="none" xmlns="http://www.w3.org/2000/svg">
<path d="M8.00037 7.09961C9.36094 7.09982 10.3998 8.33987 10.3998 9.71094C10.3997 10.1532 10.2525 10.5966 10.0375 10.8926C9.93562 11.0328 9.75502 11.0916 9.59021 11.0381C9.42579 10.9844 9.31398 10.8312 9.31385 10.6582C9.31385 10.4782 9.21549 10.3541 9.10291 10.3018C8.99723 10.2527 8.885 10.2647 8.79139 10.3682C8.69691 10.4727 8.66844 10.5962 8.69861 10.7803C8.7317 10.9818 8.82655 11.1987 8.93592 11.4404C9.1279 11.8647 9.1532 12.288 9.01893 12.7002C8.88912 13.0984 8.61989 13.4562 8.27771 13.7871C8.17159 13.8897 8.01785 13.9261 7.87732 13.8809C7.73686 13.8356 7.63314 13.7165 7.60682 13.5713C7.4903 12.9274 7.0743 12.4532 6.58826 11.8672C6.12762 11.3118 5.60013 10.6475 5.59998 9.71094C5.59998 8.33976 6.63963 7.09961 8.00037 7.09961ZM9.25916 2.09961C10.4792 2.09964 11.606 2.75415 12.2113 3.81348L13.4545 5.98926C13.9202 6.80426 13.0514 7.73074 12.2084 7.31836C9.56894 6.02608 6.453 6.03268 3.80701 7.31738C2.97882 7.71917 2.0699 6.82099 2.54725 5.98535L3.78943 3.81348C4.39471 2.75424 5.52064 2.09975 6.74061 2.09961H9.25916ZM6.74061 2.90039C5.80778 2.90053 4.94664 3.40007 4.48377 4.20996L3.24256 6.38184C3.21972 6.4218 3.21731 6.45359 3.22107 6.47754C3.22546 6.50483 3.24018 6.53552 3.266 6.5625C3.31717 6.61585 3.38547 6.63238 3.4574 6.59766C6.32254 5.20655 9.6971 5.19795 12.5599 6.59961C12.6953 6.66579 12.8349 6.51658 12.7601 6.38574L11.517 4.20996C11.0541 3.39989 10.1922 2.90043 9.25916 2.90039H6.74061ZM6.39978 9.71094C6.39993 10.3285 6.73392 10.7902 7.2035 11.3564C7.51443 11.7314 7.89078 12.1607 8.14588 12.6895C8.19411 12.6067 8.23316 12.5289 8.25818 12.4521C8.3273 12.24 8.32149 12.0228 8.2074 11.7705C8.10657 11.5476 7.96167 11.2332 7.90857 10.9092C7.85269 10.5678 7.8915 10.1705 8.19861 9.83105C8.5494 9.44357 9.04704 9.39372 9.43982 9.57617C9.49479 9.60171 9.54659 9.63379 9.59705 9.66797C9.5761 8.67588 8.82849 7.9006 8.00037 7.90039C7.16029 7.90039 6.39978 8.6984 6.39978 9.71094Z" fill="#EEEEEE" />
</svg>
