<svg width="16" height="16" viewBox="0 0 16 16" fill="none" xmlns="http://www.w3.org/2000/svg">
<path d="M1.59961 12.667V9.99997C1.59961 9.77905 1.77909 9.59958 2 9.59958C2.22091 9.59958 2.40039 9.77905 2.40039 9.99997V12.667C2.40048 12.9144 2.49887 13.1512 2.67383 13.3261C2.84879 13.5011 3.08559 13.5995 3.33301 13.5996H12.667C12.9144 13.5995 13.1512 13.5011 13.3262 13.3261C13.5011 13.1512 13.5995 12.9144 13.5996 12.667V9.99997C13.5996 9.77905 13.7791 9.59958 14 9.59958C14.2209 9.59958 14.4004 9.77905 14.4004 9.99997V12.667C14.4003 13.1266 14.2176 13.5676 13.8926 13.8925C13.5676 14.2175 13.1266 14.4003 12.667 14.4004H3.33301C2.87342 14.4003 2.43241 14.2175 2.10742 13.8925C1.78244 13.5676 1.5997 13.1266 1.59961 12.667ZM7.59961 9.99997V2.96579L4.94922 5.61618C4.79299 5.77222 4.53994 5.77233 4.38379 5.61618C4.22765 5.46003 4.22776 5.20697 4.38379 5.05075L7.7168 1.71677L7.78027 1.66598C7.93551 1.56361 8.14657 1.58015 8.2832 1.71677L11.6162 5.05075C11.7723 5.20697 11.7724 5.46002 11.6162 5.61618C11.4601 5.77233 11.207 5.77223 11.0508 5.61618L8.40039 2.96579V9.99997C8.40039 10.2209 8.22091 10.4004 8 10.4004C7.77909 10.4004 7.59961 10.2209 7.59961 9.99997Z" fill="#EEEEEE" />
</svg>
