<svg width="16" height="16" viewBox="0 0 16 16" fill="none" xmlns="http://www.w3.org/2000/svg">
<path d="M8.0762 6.96753C8.0762 5.69501 7.03838 4.66008 5.75393 4.65991C4.46934 4.65991 3.43167 5.69491 3.43167 6.96753C3.43172 8.16051 4.34329 9.14494 5.51565 9.26343L5.75393 9.27515L5.99124 9.26343C7.16376 9.1451 8.07615 8.16062 8.0762 6.96753ZM12.5498 6.96753C12.5498 5.69491 11.5112 4.65991 10.2266 4.65991C9.96168 4.65996 9.70779 4.70331 9.47171 4.78394C9.26267 4.85529 9.03528 4.74395 8.96389 4.53491C8.89257 4.32598 9.0041 4.09863 9.21292 4.0271C9.53118 3.91841 9.8726 3.85918 10.2266 3.85913C11.949 3.85913 13.3496 5.24908 13.3496 6.96753C13.3496 8.06747 12.7738 9.02954 11.9092 9.58179C12.8454 9.92499 13.6968 10.5553 14.3174 11.4744C14.441 11.6574 14.393 11.9064 14.21 12.03C14.0269 12.1536 13.7779 12.1047 13.6543 11.9216C12.8349 10.7083 11.5416 10.0924 10.2373 10.074C10.2339 10.074 10.23 10.075 10.2266 10.075C10.171 10.0749 10.1184 10.0633 10.0703 10.0427C9.92498 9.98171 9.82368 9.83797 9.82522 9.67065C9.82748 9.44988 10.0078 9.27211 10.2285 9.27417C10.2317 9.2742 10.2352 9.27413 10.2383 9.27417C11.5177 9.26813 12.5498 8.23638 12.5498 6.96753ZM8.876 6.96753C8.87597 8.06676 8.30117 9.02839 7.43753 9.58081C8.37333 9.92399 9.22316 10.5553 9.84378 11.4744C9.96741 11.6574 9.91943 11.9064 9.73635 12.03C9.5533 12.1534 9.30426 12.1046 9.18069 11.9216C7.51684 9.4582 3.88927 9.45796 2.22561 11.9216C2.10206 12.1046 1.85397 12.1533 1.67092 12.03C1.48784 11.9064 1.43987 11.6574 1.5635 11.4744C2.19806 10.5347 3.07256 9.89698 4.03323 9.55933C3.18943 9.00337 2.63092 8.05163 2.63089 6.96753C2.63089 5.24908 4.03152 3.85913 5.75393 3.85913C7.4762 3.8593 8.876 5.24918 8.876 6.96753Z" fill="#EEEEEE" />
</svg>
